<?xml version="1.0" encoding="UTF-8" standalone="no"?>
<!-- Created with Inkscape (http://www.inkscape.org/) -->

<svg
   xmlns:dc="http://purl.org/dc/elements/1.1/"
   xmlns:cc="http://creativecommons.org/ns#"
   xmlns:rdf="http://www.w3.org/1999/02/22-rdf-syntax-ns#"
   xmlns:svg="http://www.w3.org/2000/svg"
   xmlns="http://www.w3.org/2000/svg"
   xmlns:sodipodi="http://sodipodi.sourceforge.net/DTD/sodipodi-0.dtd"
   xmlns:inkscape="http://www.inkscape.org/namespaces/inkscape"
   width="210mm"
   height="297mm"
   viewBox="0 0 210 297"
   version="1.1"
   id="svg8"
   inkscape:version="0.92.2 5c3e80d, 2017-08-06"
   sodipodi:docname="ej.svg">
  <defs
     id="defs2" />
  <sodipodi:namedview
     id="base"
     pagecolor="#ffffff"
     bordercolor="#666666"
     borderopacity="1.0"
     inkscape:pageopacity="0.0"
     inkscape:pageshadow="2"
     inkscape:zoom="0.35"
     inkscape:cx="-144.28571"
     inkscape:cy="560"
     inkscape:document-units="mm"
     inkscape:current-layer="layer1"
     showgrid="false"
     inkscape:window-width="1280"
     inkscape:window-height="699"
     inkscape:window-x="0"
     inkscape:window-y="1"
     inkscape:window-maximized="1" />
  <metadata
     id="metadata5">
    <rdf:RDF>
      <cc:Work
         rdf:about="">
        <dc:format>image/svg+xml</dc:format>
        <dc:type
           rdf:resource="http://purl.org/dc/dcmitype/StillImage" />
        <dc:title></dc:title>
      </cc:Work>
    </rdf:RDF>
  </metadata>
  <g
     inkscape:label="Calque 1"
     inkscape:groupmode="layer"
     id="layer1">
    <g
       aria-label="E.J."
       transform="matrix(1.5644834,0,0,1.394052,-84.991835,-92.151237)"
       style="font-style:normal;font-variant:normal;font-weight:normal;font-stretch:normal;font-size:39.99991226px;line-height:125%;font-family:Luminari;-inkscape-font-specification:'Luminari, Normal';font-variant-ligatures:normal;font-variant-caps:normal;font-variant-numeric:normal;font-feature-settings:normal;text-align:start;letter-spacing:0px;word-spacing:0px;writing-mode:lr-tb;text-anchor:start;fill:#000000;fill-opacity:1;stroke:none;stroke-width:0.17915852px;stroke-linecap:butt;stroke-linejoin:miter;stroke-opacity:1"
       id="flowRoot815-4">
      <g
         id="g869"
         transform="matrix(1,0,0,0.93355923,0,5.4021199)"
         style="stroke-width:0.18542425px">
        <path
           id="path856"
           style="font-style:normal;font-variant:normal;font-weight:normal;font-stretch:normal;font-size:39.99991226px;font-family:Luminari;-inkscape-font-specification:'Luminari, Normal';font-variant-ligatures:normal;font-variant-caps:normal;font-variant-numeric:normal;font-feature-settings:normal;text-align:start;writing-mode:lr-tb;text-anchor:start;fill:none;stroke:#000000;stroke-width:0.18542425px;stroke-opacity:1"
           d="m 110.43479,115.78723 q -0.08,-0.56 -0.32,-1.2 -0.2,-0.6 -0.92,-0.6 -0.6,0 -1.63999,0.04 -1,0.08 -2.16,0.16 -1.16,0.12 -2.31999,0.16 -1.16,0.08 -2.04,0.08 -3.479992,0 -6.159986,-1 -2.679994,-0.99999 -4.51999,-2.75999 -1.839996,-1.76 -2.799994,-4.19999 -0.959998,-2.48 -0.959998,-5.43999 0,-4.119991 1.319997,-7.079984 1.319997,-2.999993 3.559992,-4.919989 2.239995,-1.919996 5.159989,-2.799994 2.919993,-0.919998 6.11999,-0.919998 0.95999,0 2.07999,0.08 1.12,0.04 2.12,0.159999 0.99999,0.08 1.75999,0.2 0.76,0.08 1.08,0.16 0.2,0.04 0.4,-0.679999 0.2,-0.719998 0.48,-1.559997 0.32,-0.879998 0.72,-1.599996 0.4,-0.759998 0.96,-0.759998 0.67999,0.199999 0.95999,0.439999 0.28,0.239999 -0.28,0.639998 -0.91999,0.719999 -1.55999,1.959996 -0.6,1.199997 -1.08,2.919994 -0.2,0.519998 -0.44,1.479996 -0.2,0.959998 -0.36,2.159996 -0.08,0.319999 -0.52,0.319999 -0.4,-0.04 -0.56,-0.599999 -0.2,-0.559999 -0.75999,-1.239997 -0.56,-0.719998 -1.48,-1.359997 -0.92,-0.639999 -2.2,-1.039998 -1.27999,-0.439999 -2.87999,-0.439999 -1.799996,0 -3.279993,0.959998 -1.479997,0.919998 -2.559994,2.479995 -1.079998,1.519996 -1.719997,3.519992 -0.639998,1.959996 -0.759998,4.079991 0.319999,0.08 1.319997,0.16 1.039998,0.08 2.239995,0.119999 1.199998,0.04 2.319995,0.08 1.119998,0 1.679995,-0.04 1.28,0 2.52,-0.119999 1.23999,-0.12 2.27999,-0.32 1.04,-0.239999 1.8,-0.519999 0.76,-0.279999 1.07999,-0.599998 0.16,-0.24 0.44,-0.2 0.32,0.04 0.44,0.2 -0.08,0.359999 -0.28,0.959998 -0.2,0.559998 -0.44,1.319997 -0.24,0.759998 -0.39999,1.679994 -0.16,0.92 -0.16,1.92 -0.08,0.4 -0.48,0.24 -0.36,-0.16 -0.44,-0.44 -0.16,-0.64 -0.8,-1 -0.6,-0.36 -1.6,-0.52 -0.96,-0.2 -2.19999,-0.24 -1.24,-0.04 -2.679997,-0.04 -2.719994,0 -4.39999,0.04 -1.639996,0.04 -2.319995,0.08 0,1.2 0.16,2.6 0.199999,1.39999 0.639998,2.79999 0.44,1.4 1.159998,2.71999 0.719998,1.28 1.799996,2.32 1.079998,1 2.559994,1.6 1.519996,0.59999 3.479996,0.59999 1.87999,0 3.31999,-0.43999 1.44,-0.48 2.43999,-1.12 1,-0.68 1.6,-1.4 0.64,-0.72 0.88,-1.28 0.12,-0.12 0.16,-0.12 0.16,0 0.36,0.12 0.24,0.12 0.24,0.32 -0.12,0.44 -0.24,0.96 -0.2,1 -0.2,2.28 0,1.03999 0.08,2.03999 0.08,1 0.28,1.68 -0.4,0.16 -0.72,0.12 -0.28,0 -0.36,-0.36 z"
           inkscape:connector-curvature="0" />
        <path
           id="path858"
           style="font-style:normal;font-variant:normal;font-weight:normal;font-stretch:normal;font-size:39.99991226px;font-family:Luminari;-inkscape-font-specification:'Luminari, Normal';font-variant-ligatures:normal;font-variant-caps:normal;font-variant-numeric:normal;font-feature-settings:normal;text-align:start;writing-mode:lr-tb;text-anchor:start;fill:none;stroke:#000000;stroke-width:0.18542425px;stroke-opacity:1"
           d="m 117.52102,110.38724 q 0.2,0.04 0.64,0.44 0.48,0.4 0.96,0.92 0.48,0.52 0.84,0.99999 0.36,0.48 0.36,0.64 0,0.2 -0.48,0.6 -0.48,0.4 -1.12,0.8 -0.6,0.44 -1.2,0.76 -0.55999,0.32 -0.79999,0.32 -0.12,0 -0.6,-0.4 -0.44,-0.36 -0.92,-0.84 -0.48,-0.48 -0.88,-0.92 -0.36,-0.48 -0.36,-0.64 0,-0.2 0.52,-0.59999 0.52,-0.44 1.12,-0.88 0.64,-0.48 1.2,-0.8 0.59999,-0.36 0.71999,-0.4 z"
           inkscape:connector-curvature="0" />
        <path
           id="path860"
           style="font-style:normal;font-variant:normal;font-weight:normal;font-stretch:normal;font-size:39.99991226px;font-family:Luminari;-inkscape-font-specification:'Luminari, Normal';font-variant-ligatures:normal;font-variant-caps:normal;font-variant-numeric:normal;font-feature-settings:normal;text-align:start;writing-mode:lr-tb;text-anchor:start;fill:none;stroke:#000000;stroke-width:0.18542425px;stroke-opacity:1"
           d="m 125.95663,117.90722 q -1.16,2.08 -2.91999,3.08 -1.72,1.03999 -3.44,1.03999 -1.03999,-0.2 -1.03999,-0.79999 0,-0.52 0.4,-0.52 0.16,0 0.4,0.04 0.23999,0.04 0.75999,0.04 2.2,0 3.44,-1.56 1.23999,-1.56 1.67999,-3.99999 0.48,-2.91999 0.68,-6.31999 0.24,-3.43999 0.32,-7.91998 0,-6.999984 -0.2,-10.399977 -0.2,-3.439992 -0.56,-3.919991 -0.28,-0.08 -0.8,-0.12 -0.48,-0.08 -0.99999,-0.08 -0.52,-0.04 -1,-0.04 -0.44,-0.04 -0.64,-0.04 -0.16,0 -0.32,-0.08 -0.12,-0.12 -0.12,-0.36 0,-0.759998 0.48,-0.879998 0.08,0 0.6,0.08 0.56,0.08 1.43999,0.2 0.92,0.08 2.12,0.159999 1.2,0.08 2.55999,0.08 2.8,0 4.32,-0.159999 1.51999,-0.16 1.95999,-0.24 0.12,0 0.2,0.16 0.08,0.159999 0.08,0.399999 0,0.199999 -0.12,0.399999 -0.12,0.2 -0.36,0.2 -0.48,0.04 -1.08,0.119999 -0.6,0.08 -1.15999,0.24 -0.44,0.12 -0.76,0.999998 -0.28,0.879998 -0.48,2.279995 -0.16,1.359997 -0.24,3.159993 -0.08,1.759996 -0.12,3.679992 v 1.799996 q 0,1.839995 0,3.639995 0.04,1.75999 0.04,3.39999 0,1.6 0,2.99999 0.04,1.36 0.04,2.36 0,2.19999 -0.44,3.15999 -0.4,0.96 -1.08,1.36 -0.64,0.44 -1.47999,0.64 -0.84,0.24 -1.72,0.92 z"
           inkscape:connector-curvature="0" />
        <path
           id="path862"
           style="font-style:normal;font-variant:normal;font-weight:normal;font-stretch:normal;font-size:39.99991226px;font-family:Luminari;-inkscape-font-specification:'Luminari, Normal';font-variant-ligatures:normal;font-variant-caps:normal;font-variant-numeric:normal;font-feature-settings:normal;text-align:start;writing-mode:lr-tb;text-anchor:start;fill:none;stroke:#000000;stroke-width:0.18542425px;stroke-opacity:1"
           d="m 138.8491,110.38724 q 0.2,0.04 0.64,0.44 0.48,0.4 0.96,0.92 0.48,0.52 0.84,0.99999 0.36,0.48 0.36,0.64 0,0.2 -0.48,0.6 -0.48,0.4 -1.12,0.8 -0.6,0.44 -1.2,0.76 -0.55999,0.32 -0.79999,0.32 -0.12,0 -0.6,-0.4 -0.44,-0.36 -0.92,-0.84 -0.48,-0.48 -0.88,-0.92 -0.36,-0.48 -0.36,-0.64 0,-0.2 0.52,-0.59999 0.52,-0.44 1.12,-0.88 0.64,-0.48 1.2,-0.8 0.59999,-0.36 0.71999,-0.4 z"
           inkscape:connector-curvature="0" />
      </g>
    </g>
  </g>
</svg>
