<?xml version="1.0" encoding="UTF-8" standalone="no"?>
<!-- Created with Inkscape (http://www.inkscape.org/) -->

<svg
   xmlns:dc="http://purl.org/dc/elements/1.1/"
   xmlns:cc="http://creativecommons.org/ns#"
   xmlns:rdf="http://www.w3.org/1999/02/22-rdf-syntax-ns#"
   xmlns:svg="http://www.w3.org/2000/svg"
   xmlns="http://www.w3.org/2000/svg"
   xmlns:sodipodi="http://sodipodi.sourceforge.net/DTD/sodipodi-0.dtd"
   xmlns:inkscape="http://www.inkscape.org/namespaces/inkscape"
   width="297mm"
   height="210mm"
   viewBox="0 0 297 210"
   version="1.1"
   id="svg896"
   inkscape:version="0.92.2 5c3e80d, 2017-08-06"
   sodipodi:docname="sweet-roulotte.svg">
  <defs
     id="defs890" />
  <sodipodi:namedview
     id="base"
     pagecolor="#ffffff"
     bordercolor="#666666"
     borderopacity="1.0"
     inkscape:pageopacity="0.0"
     inkscape:pageshadow="2"
     inkscape:zoom="0.38"
     inkscape:cx="848.31887"
     inkscape:cy="875.78947"
     inkscape:document-units="mm"
     inkscape:current-layer="layer1"
     showgrid="false"
     inkscape:window-width="1280"
     inkscape:window-height="699"
     inkscape:window-x="0"
     inkscape:window-y="1"
     inkscape:window-maximized="1" />
  <metadata
     id="metadata893">
    <rdf:RDF>
      <cc:Work
         rdf:about="">
        <dc:format>image/svg+xml</dc:format>
        <dc:type
           rdf:resource="http://purl.org/dc/dcmitype/StillImage" />
        <dc:title></dc:title>
      </cc:Work>
    </rdf:RDF>
  </metadata>
  <g
     inkscape:label="Calque 1"
     inkscape:groupmode="layer"
     id="layer1"
     transform="translate(0,-87)">
    <g
       aria-label="Sweet  Roulotte"
       transform="scale(0.84939936,1.1773025)"
       style="font-style:normal;font-weight:normal;font-size:30.64756775px;line-height:125%;font-family:Sans;letter-spacing:0px;word-spacing:0px;fill:#000000;fill-opacity:1;stroke:none;stroke-width:0.26458332px;stroke-linecap:butt;stroke-linejoin:miter;stroke-opacity:1"
       id="text1447">
      <path
         d="m 4.6393119,113.31636 q -0.1144176,0 -0.2288352,0 -0.1144176,-0.0572 -0.1716264,-0.22883 0,-0.0572 0.1144176,-0.40047 0.1716264,-0.34325 0.5148792,-0.74371 0.3432527,-0.40046 0.8581319,-0.68651 0.5148792,-0.34325 1.2585936,-0.34325 0.9153407,0 1.4874287,0.51488 0.572088,0.45767 0.9153408,1.3158 0.3432527,0.85813 0.4576703,2.00231 0.1144176,1.08697 0.1144176,2.34556 0.171626,1.37301 1.258594,2.80323 1.144176,1.43022 2.746022,2.5744 1.659055,1.14417 3.604154,1.88789 1.945099,0.74371 3.775781,0.80092 4.347868,0.11442 6.350176,-1.83068 2.002308,-2.00231 2.002308,-5.09158 0,-2.5744 -0.972549,-4.17624 -0.97255,-1.60185 -2.631605,-2.5744 -1.601846,-0.97255 -3.661363,-1.54464 -2.059517,-0.62929 -4.233451,-1.14417 -2.116726,-0.51488 -4.176242,-1.14418 -2.059517,-0.6293 -3.718572,-1.71626 -1.6018465,-1.08697 -2.5743961,-2.80323 -0.9725495,-1.77348 -0.9725495,-4.5195 0,-2.631605 1.1441759,-4.977165 1.2013848,-2.40277 3.3753187,-4.176243 2.173935,-1.830681 5.26321,-2.860439 3.146484,-1.086968 7.093891,-1.086968 3.77578,0 6.464594,0.743715 2.688813,0.743714 4.119033,1.144176 0.286044,-0.457671 0.629297,-1.029759 0.343253,-0.629296 0.743714,-1.144176 0.457671,-0.514879 0.97255,-0.858132 0.514879,-0.400461 1.201385,-0.400461 0.514879,0 0.800923,0.343253 0.343253,0.286044 0.343253,0.572088 -0.114418,0.286044 -0.457671,0.45767 -0.343253,0.171626 -0.629297,0.343253 -1.773472,0.915341 -2.974857,4.29066 -1.144176,3.31811 -1.315802,8.180858 -0.05721,0.114417 -0.286044,0.171626 -0.228836,0.05721 -0.51488,0.05721 -0.45767,0 -0.629296,-0.05721 -0.171627,-1.716264 -1.029759,-3.489737 -0.858132,-1.773472 -2.402769,-3.203692 -1.487429,-1.487429 -3.718572,-2.40277 -2.173934,-0.91534 -4.977165,-0.91534 -1.716264,0 -3.089275,0.514879 -1.373012,0.45767 -2.345561,1.315802 -0.915341,0.800923 -1.43022,1.830682 -0.45767,1.029758 -0.45767,2.059516 0,2.40277 1.945099,4.405078 1.945099,1.945096 5.892506,2.917646 2.459978,0.6293 5.091583,1.43022 2.688813,0.74372 4.862748,2.05952 2.173934,1.3158 3.604154,3.31811 1.43022,2.00231 1.43022,5.09158 0,3.03207 -1.43022,5.8353 -1.373011,2.74602 -3.661363,4.86275 -2.288352,2.11672 -5.206001,3.37532 -2.917649,1.25859 -5.949715,1.25859 -2.34556,0 -4.576704,-0.34325 -2.231143,-0.28605 -4.119033,-0.74372 -1.8878903,-0.40046 -3.3181102,-0.85813 -1.43022,-0.51488 -2.1167256,-0.85813 0.5148792,-0.91534 1.0297584,-1.9451 0.572088,-1.02976 1.0297584,-2.17393 0.5148791,-1.14418 0.8009231,-2.34557 0.3432528,-1.25859 0.3432528,-2.6316 0,-2.00231 -0.6292968,-3.03207 -0.5720879,-1.02975 -1.3730111,-1.02975 -0.572088,0 -0.8009232,0.22883 -0.2288352,0.22884 -0.5720879,0.68651 z"
         style="font-style:normal;font-variant:normal;font-weight:normal;font-stretch:normal;font-size:57.20879745px;font-family:Luminari;-inkscape-font-specification:'Luminari, Normal';font-variant-ligatures:normal;font-variant-caps:normal;font-variant-numeric:normal;font-feature-settings:normal;text-align:start;writing-mode:lr-tb;text-anchor:start;stroke-width:0.26458332px"
         id="path1468" />
      <path
         d="m 65.219852,127.10368 q -0.400462,-0.85813 -1.144176,-2.6316 -0.686506,-1.83069 -1.544638,-4.06183 -0.858132,-2.23114 -1.830681,-4.5767 -0.97255,-2.40277 -1.830682,-4.34787 -0.972549,1.65905 -2.34556,4.06182 -1.373012,2.34556 -2.746023,4.69113 -1.373011,2.34556 -2.517187,4.40507 -1.144176,2.00231 -1.659055,3.03207 -0.171626,0.22883 -0.743714,0.28604 -0.51488,0.0572 -0.800924,0.0572 -0.629296,0 -0.858131,-0.6865 -0.343253,-1.48743 -0.915341,-3.77578 -0.514879,-2.28836 -1.258594,-4.86275 -0.686505,-2.63161 -1.544637,-5.26321 -0.800923,-2.63161 -1.659055,-4.74833 -0.858132,-2.11673 -1.773473,-3.43253 -0.858132,-1.3158 -1.659055,-1.3158 -0.286044,0 -0.572088,0 -0.228835,-0.0572 -0.514879,-0.0572 -0.51488,0 -0.686506,0.0572 -0.228835,0 -0.228835,-0.40046 0,-0.11442 0.171626,-0.40046 0.343253,-0.22884 1.544638,-0.85814 1.201384,-0.6865 2.517187,-1.37301 1.373011,-0.74371 2.517187,-1.3158 1.201385,-0.572088 1.544637,-0.572088 0.97255,0 1.887891,2.059518 0.972549,2.05952 1.88789,5.14879 0.915341,3.08928 1.830682,6.69343 0.91534,3.60415 1.830681,6.69343 0.514879,-0.74372 1.144176,-1.83068 0.686506,-1.14418 1.373011,-2.51719 0.743715,-1.37301 1.487429,-2.91765 0.800923,-1.54464 1.544637,-3.08927 -0.228835,-0.57209 -0.572088,-1.31581 -0.286044,-0.80092 -0.629296,-1.60184 -0.343253,-0.80093 -0.743715,-1.54464 -0.343252,-0.80092 -0.686505,-1.3158 -0.343253,-0.51488 -0.800923,-0.57209 -0.457671,-0.11442 -0.457671,-0.40046 0,-0.11442 0.114418,-0.22884 1.601846,-0.91534 3.489736,-1.83068 1.9451,-0.972548 3.83299,-1.258592 0.514879,0.114418 0.743714,0.514879 0.228835,0.343253 0.343253,0.800923 0.228835,0.68651 0.686506,2.11673 0.514879,1.37301 1.086967,3.20369 0.629297,1.83068 1.315802,3.94741 0.743714,2.05951 1.43022,4.11903 0.686506,2.00231 1.315802,3.83299 0.686506,1.77347 1.258594,2.97486 0.800923,-1.65906 1.773473,-3.8902 1.029758,-2.23115 1.88789,-4.5195 0.915341,-2.34556 1.487429,-4.46228 0.629296,-2.17394 0.629296,-3.54695 0,-2.86044 -2.574395,-2.86044 -0.629297,0 -1.258594,0.17163 -0.572088,0.11442 -0.743714,0.11442 -0.171627,0 -0.343253,-0.17163 -0.114418,-0.22884 -0.114418,-0.51488 0,-0.22884 0.800923,-0.51488 0.800924,-0.34325 2.116726,-0.572088 1.315802,-0.286044 2.917649,-0.45767 1.601846,-0.228835 3.260901,-0.228835 1.258594,0 2.059517,0.343253 0.858132,0.343252 1.086967,1.02976 -0.45767,1.71626 -1.544638,4.00461 -1.086967,2.28836 -2.517187,4.80554 -1.373011,2.51719 -2.974857,5.206 -1.601846,2.63161 -3.089275,5.09159 -1.487429,2.45997 -2.746022,4.5767 -1.201385,2.11673 -1.830682,3.54695 -0.114418,0.11441 -0.743714,0.11441 -0.572088,0 -0.858132,0 -0.457671,0 -0.514879,-0.22883 -0.05721,-0.17163 -0.343253,-0.6293 z"
         style="font-style:normal;font-variant:normal;font-weight:normal;font-stretch:normal;font-size:57.20879745px;font-family:Luminari;-inkscape-font-specification:'Luminari, Normal';font-variant-ligatures:normal;font-variant-caps:normal;font-variant-numeric:normal;font-feature-settings:normal;text-align:start;writing-mode:lr-tb;text-anchor:start;stroke-width:0.26458332px"
         id="path1470" />
      <path
         d="m 108.24623,120.81071 q -0.6293,0.68651 -1.9451,1.88789 -1.3158,1.20139 -3.20369,2.40277 -1.83068,1.20139 -4.119036,2.05952 -2.288352,0.85813 -4.862748,0.85813 -2.345561,0 -4.576704,-0.6865 -2.231143,-0.74372 -4.004616,-2.17394 -1.773472,-1.48743 -2.860439,-3.71857 -1.029759,-2.28835 -1.029759,-5.43484 0,-2.57439 0.343253,-4.40507 0.343253,-1.88789 0.915341,-3.2609 0.572088,-1.43022 1.258593,-2.40277 0.743715,-1.02976 1.487429,-1.83069 0.915341,-1.02975 2.231143,-1.94509 1.315802,-0.91535 2.803231,-1.65906 1.544638,-0.743714 3.203693,-1.144176 1.716264,-0.45767 3.432528,-0.45767 3.089271,0 4.805541,1.029758 1.77347,1.029758 1.77347,2.860438 0,1.14418 -0.68651,2.11673 0.57209,-0.17163 1.43022,-0.57209 0.91535,-0.40046 1.83069,-0.80092 0.91534,-0.45767 1.60184,-0.80093 0.74372,-0.34325 0.97255,-0.51488 0.11442,-0.11441 0.22884,-0.0572 0.17162,0 0.17162,0.17162 0,0.74372 -0.28604,1.2586 -0.28604,0.45767 -0.68651,0.74371 -0.91534,0.57209 -2.6316,1.43022 -1.71626,0.85813 -3.83299,1.83068 -2.059517,0.91534 -4.29066,1.88789 -2.231143,0.91534 -4.233451,1.77347 -1.945099,0.85814 -3.432528,1.54464 -1.430219,0.6293 -1.945099,0.91534 0,1.9451 0.743715,3.66137 0.800923,1.65905 2.173934,2.91764 1.373011,1.2586 3.260901,2.00231 1.9451,0.68651 4.233451,0.68651 2.059517,0 3.718577,-0.40046 1.65905,-0.45767 2.80323,-0.97255 1.14417,-0.57209 1.77347,-0.97255 0.6865,-0.45767 0.74371,-0.45767 0.22884,0 0.45767,0.22883 0.22884,0.17163 0.22884,0.40046 z m -20.137498,-8.75294 q 0.97255,-0.34326 2.173935,-0.80093 1.258593,-0.51487 2.402769,-1.08696 1.201385,-0.57209 2.173934,-1.08697 0.97255,-0.51488 1.487429,-0.91534 1.029759,-0.74372 1.029759,-2.51719 0,-0.6865 -0.286044,-1.43022 -0.228836,-0.74371 -0.743715,-1.3158 -0.514879,-0.6293 -1.258593,-0.97255 -0.743715,-0.40046 -1.659055,-0.40046 -0.800924,0 -1.716264,0.57209 -0.915341,0.51488 -1.716264,1.77347 -0.800924,1.20138 -1.373011,3.2609 -0.51488,2.00231 -0.51488,4.91996 z"
         style="font-style:normal;font-variant:normal;font-weight:normal;font-stretch:normal;font-size:57.20879745px;font-family:Luminari;-inkscape-font-specification:'Luminari, Normal';font-variant-ligatures:normal;font-variant-caps:normal;font-variant-numeric:normal;font-feature-settings:normal;text-align:start;writing-mode:lr-tb;text-anchor:start;stroke-width:0.26458332px"
         id="path1472" />
      <path
         d="m 134.83938,120.81071 q -0.62929,0.68651 -1.9451,1.88789 -1.3158,1.20139 -3.20369,2.40277 -1.83068,1.20139 -4.11903,2.05952 -2.28835,0.85813 -4.86275,0.85813 -2.34556,0 -4.5767,-0.6865 -2.23115,-0.74372 -4.00462,-2.17394 -1.77347,-1.48743 -2.86044,-3.71857 -1.02976,-2.28835 -1.02976,-5.43484 0,-2.57439 0.34326,-4.40507 0.34325,-1.88789 0.91534,-3.2609 0.57208,-1.43022 1.25859,-2.40277 0.74371,-1.02976 1.48743,-1.83069 0.91534,-1.02975 2.23114,-1.94509 1.3158,-0.91535 2.80323,-1.65906 1.54464,-0.743714 3.2037,-1.144176 1.71626,-0.45767 3.43252,-0.45767 3.08928,0 4.80554,1.029758 1.77348,1.029758 1.77348,2.860438 0,1.14418 -0.68651,2.11673 0.57209,-0.17163 1.43022,-0.57209 0.91534,-0.40046 1.83068,-0.80092 0.91534,-0.45767 1.60185,-0.80093 0.74371,-0.34325 0.97255,-0.51488 0.11441,-0.11441 0.22883,-0.0572 0.17163,0 0.17163,0.17162 0,0.74372 -0.28605,1.2586 -0.28604,0.45767 -0.6865,0.74371 -0.91534,0.57209 -2.63161,1.43022 -1.71626,0.85813 -3.83298,1.83068 -2.05952,0.91534 -4.29066,1.88789 -2.23115,0.91534 -4.23346,1.77347 -1.94509,0.85814 -3.43252,1.54464 -1.43022,0.6293 -1.9451,0.91534 0,1.9451 0.74371,3.66137 0.80092,1.65905 2.17394,2.91764 1.37301,1.2586 3.2609,2.00231 1.9451,0.68651 4.23345,0.68651 2.05952,0 3.71857,-0.40046 1.65906,-0.45767 2.80323,-0.97255 1.14418,-0.57209 1.77347,-0.97255 0.68651,-0.45767 0.74372,-0.45767 0.22883,0 0.45767,0.22883 0.22883,0.17163 0.22883,0.40046 z m -20.13749,-8.75294 q 0.97255,-0.34326 2.17393,-0.80093 1.2586,-0.51487 2.40277,-1.08696 1.20139,-0.57209 2.17394,-1.08697 0.97254,-0.51488 1.48742,-0.91534 1.02976,-0.74372 1.02976,-2.51719 0,-0.6865 -0.28604,-1.43022 -0.22884,-0.74371 -0.74372,-1.3158 -0.51488,-0.6293 -1.25859,-0.97255 -0.74371,-0.40046 -1.65905,-0.40046 -0.80093,0 -1.71627,0.57209 -0.91534,0.51488 -1.71626,1.77347 -0.80093,1.20138 -1.37301,3.2609 -0.51488,2.00231 -0.51488,4.91996 z"
         style="font-style:normal;font-variant:normal;font-weight:normal;font-stretch:normal;font-size:57.20879745px;font-family:Luminari;-inkscape-font-specification:'Luminari, Normal';font-variant-ligatures:normal;font-variant-caps:normal;font-variant-numeric:normal;font-feature-settings:normal;text-align:start;writing-mode:lr-tb;text-anchor:start;stroke-width:0.26458332px"
         id="path1474" />
      <path
         d="m 161.89019,119.55212 q 0.11442,-0.11442 0.17163,0.0572 0.11442,0.11442 0.11442,0.40046 0.0572,0.22884 0,0.51488 -0.0572,0.28604 -0.22884,0.45767 -1.14417,1.08697 -2.86044,2.28835 -1.71626,1.20139 -3.54694,2.23114 -0.51488,0.28605 -1.43022,0.74372 -0.91534,0.45767 -2.05952,0.91534 -1.08697,0.40046 -2.28835,0.68651 -1.14418,0.34325 -2.17394,0.34325 -2.05951,0 -3.89019,-0.80092 -1.83069,-0.80093 -3.2037,-2.17394 -1.37301,-1.43022 -2.17393,-3.37532 -0.74371,-1.9451 -0.74371,-4.23345 0,-2.45998 0.6865,-4.63391 0.68651,-2.17394 1.54464,-3.8902 0.91534,-1.71626 1.71626,-2.86044 0.80093,-1.20138 1.08697,-1.77347 -1.08697,-0.0572 -2.00231,-0.0572 -0.85813,-0.0572 -1.65905,-0.0572 -1.83069,0 -3.08928,0.0572 -1.25859,0 -2.23114,0.22883 -0.45767,0.11442 -0.85813,0.45767 -0.40047,0.34326 -0.68651,0.51488 -0.11442,-0.11441 -0.28604,-0.28604 -0.22884,-0.22884 -0.22884,-0.45767 0,-0.11442 0.0572,-0.17163 0,-0.0572 0.74371,-0.62929 0.74372,-0.6293 1.83069,-1.43022 1.14417,-0.85814 2.45997,-1.83069 1.37302,-1.029754 2.5744,-1.887886 1.25859,-0.858132 2.11673,-1.43022 0.91534,-0.629297 1.20138,-0.743714 0.34325,-0.114418 0.68651,0.114417 0.34325,0.228836 0.22883,0.343253 -0.17163,0.114418 -0.51488,0.45767 -0.34325,0.286044 -0.22883,0.51488 0.62929,0.514879 2.17393,0.91534 1.54464,0.400462 3.48974,0.686506 1.9451,0.228835 4.00461,0.400464 2.05952,0.11442 3.71858,0.11442 2.45997,0 3.9474,-0.11442 1.48743,-0.171629 2.45998,-0.400464 0.91534,-0.228835 1.20139,-0.343253 0.0572,0 0.22883,0.171627 0.17163,0.171626 0.17163,0.400461 0,0.114419 -0.85813,0.572089 -0.80093,0.45767 -1.65906,0.97255 -0.51488,0.28604 -1.25859,0.74371 -0.68651,0.45767 -1.54464,0.91534 -0.80092,0.40047 -1.71627,0.74372 -0.91534,0.34325 -1.77347,0.40046 -0.85813,0.11442 -2.00231,0.17163 -1.14417,0.0572 -2.40277,0.11441 -1.25859,0 -2.57439,0.0572 -1.25859,0 -2.34556,0 -0.17163,0.28605 -0.57209,0.97255 -0.34325,0.6293 -0.68651,1.65906 -0.34325,1.02976 -0.62929,2.34556 -0.28605,1.3158 -0.28605,2.86044 0,2.34556 0.68651,4.34787 0.74371,1.9451 2.00231,3.37532 1.3158,1.43022 3.08927,2.23114 1.77348,0.80092 3.83299,0.80092 1.20139,0 2.28835,-0.28604 1.14418,-0.28605 2.11673,-0.74372 1.02976,-0.45767 1.88789,-0.97255 0.85813,-0.57208 1.48743,-1.08696 z"
         style="font-style:normal;font-variant:normal;font-weight:normal;font-stretch:normal;font-size:57.20879745px;font-family:Luminari;-inkscape-font-specification:'Luminari, Normal';font-variant-ligatures:normal;font-variant-caps:normal;font-variant-numeric:normal;font-feature-settings:normal;text-align:start;writing-mode:lr-tb;text-anchor:start;stroke-width:0.26458332px"
         id="path1476" />
      <path
         d="m 200.44178,114.97542 q 0,2.91764 0.11441,5.72088 0.11442,2.74602 0.6293,4.46228 1.02976,0.6293 2.28835,0.80093 1.31581,0.11441 2.45998,0.17162 1.14418,0.0572 1.88789,0.22884 0.80092,0.17162 0.80092,0.74371 0,0.28605 -0.28604,0.45767 -0.28604,0.22884 -0.91534,0.22884 -1.65906,0.0572 -4.51949,-0.17163 -2.86044,-0.17163 -6.52181,-0.17163 -4.69112,0 -7.09389,0.28605 -2.34556,0.34325 -2.80323,0.34325 -0.40046,0 -0.68651,-0.22883 -0.28604,-0.17163 -0.28604,-0.51488 0,-0.74372 0.68651,-0.80093 0.6865,-0.0572 2.57439,-0.34325 1.2586,-0.11442 2.05952,-0.28604 0.80092,-0.22884 1.60185,-0.51488 0.34325,-1.2586 0.57208,-2.5744 0.22884,-1.3158 0.40046,-3.2609 0.17163,-2.00231 0.22884,-4.91996 0.11442,-2.97485 0.11442,-7.60877 0,-4.23345 -0.0572,-7.151096 -0.0572,-2.974858 -0.22884,-4.919957 -0.11441,-2.002308 -0.28604,-3.146484 -0.11442,-1.144176 -0.28604,-1.773473 -0.74372,-0.514879 -1.9451,-0.629296 -1.20139,-0.171627 -2.34556,-0.228836 -1.14418,-0.114417 -2.00231,-0.286044 -0.80093,-0.171626 -0.80093,-0.800923 0,-0.743714 0.91535,-0.743714 1.02975,0 3.48973,0.286044 2.51719,0.228835 6.12134,0.228835 0.57209,0 0.91534,-0.171626 0.57209,-0.286044 1.83069,-0.800923 1.25859,-0.51488 2.91764,-1.029759 1.65906,-0.514879 3.48974,-0.915341 1.88789,-0.400461 3.66136,-0.400461 2.86044,0 5.43484,0.686505 2.5744,0.629297 4.46229,1.9451 1.9451,1.315802 3.08927,3.260901 1.14418,1.945099 1.14418,4.519495 0,2.517187 -1.20139,4.691121 -1.14417,2.116722 -2.91765,3.890202 -1.77347,1.77347 -3.89019,3.08927 -2.11673,1.2586 -3.94741,2.00231 2.34556,0 4.40508,0.51488 2.11672,0.45767 3.77578,1.37301 1.71626,0.85813 2.80323,2.11673 1.14417,1.25859 1.48743,2.86044 0,0.80092 -0.17163,1.08696 -0.11442,0.22884 -0.51488,0.80093 1.14418,1.83068 2.51719,4.34786 1.43022,2.45998 3.14648,4.74833 1.77347,2.23115 3.8902,3.77579 2.17393,1.60184 4.80554,1.60184 0.51488,0 1.14417,-0.0572 0.68651,-0.0572 1.2586,-0.22883 0.6293,-0.17163 1.14417,-0.51488 0.51488,-0.34325 0.74372,-0.91534 0.22883,-0.17163 0.45767,-0.17163 0.28604,0 0.34325,0.28605 0.11442,0.28604 0.17163,0.57208 -1.14418,2.5744 -5.66367,2.5744 -2.28835,0 -4.40508,-0.74372 -2.05952,-0.74371 -4.00462,-2.0023 -1.88789,-1.20139 -3.66136,-2.80323 -1.71626,-1.60185 -3.2609,-3.31811 -1.14418,-1.2586 -2.68881,-3.14649 -1.48743,-1.88789 -3.2037,-3.83299 -1.71626,-2.00231 -3.60415,-3.71857 -1.83068,-1.77347 -3.66136,-2.74602 -0.85814,-0.40046 -1.9451,-0.57209 -1.08697,-0.22884 -2.11673,-0.28604 -0.97255,-0.11442 -1.83068,-0.11442 -0.85813,0 -1.3158,0 -0.34326,0 -0.57209,0.0572 -0.22884,0 -0.34325,0 z m 0.97255,-24.084908 q -0.28605,1.086968 -0.45767,3.032067 -0.17163,1.945099 -0.28605,4.290659 -0.11442,2.288352 -0.17162,4.805542 -0.0572,2.45998 -0.0572,4.69112 0.57208,0.45767 2.17393,0.51488 1.65906,0.0572 3.54695,0.0572 1.65905,0 2.74602,-0.28605 1.14417,-0.28604 2.11672,-1.02976 0.57209,-0.40046 1.2586,-1.3158 0.74371,-0.91534 1.37301,-2.17393 0.6865,-1.2586 1.14417,-2.80323 0.45768,-1.60185 0.45768,-3.375322 0,-2.574396 -0.57209,-4.576704 -0.57209,-2.059517 -1.54464,-3.489737 -0.97255,-1.487428 -2.28835,-2.231143 -1.3158,-0.800923 -2.80323,-0.800923 -0.80093,0 -1.83068,0.343253 -0.97255,0.286044 -1.9451,0.800923 -0.97255,0.514879 -1.71627,1.201385 -0.74371,0.629296 -0.97255,1.373011 z"
         style="font-style:normal;font-variant:normal;font-weight:normal;font-stretch:normal;font-size:57.20879745px;font-family:Luminari;-inkscape-font-specification:'Luminari, Normal';font-variant-ligatures:normal;font-variant-caps:normal;font-variant-numeric:normal;font-feature-settings:normal;text-align:start;writing-mode:lr-tb;text-anchor:start;stroke-width:0.26458332px"
         id="path1478" />
      <path
         d="m 253.47166,122.92744 q -0.6293,0.51488 -1.71627,1.37301 -1.08696,0.85813 -2.51718,1.71626 -1.43022,0.85814 -3.14649,1.48743 -1.71626,0.57209 -3.60415,0.57209 -2.86044,0 -5.09158,-0.97255 -2.23115,-1.02976 -3.77579,-2.68881 -1.48742,-1.71627 -2.28835,-4.00462 -0.74371,-2.28835 -0.74371,-4.86275 0,-3.03206 0.91534,-5.37762 0.91534,-2.34556 2.23114,-4.06183 1.37301,-1.77347 2.91765,-2.91765 1.54464,-1.20138 2.80323,-1.88789 0.57209,-0.34325 1.43022,-0.74371 0.91534,-0.40046 1.9451,-0.743715 1.08697,-0.343253 2.28835,-0.572088 1.2586,-0.286044 2.5744,-0.286044 2.45998,0 4.74833,0.629297 2.34556,0.6293 4.11903,2.00231 1.77348,1.3158 2.86044,3.43253 1.08697,2.11672 1.08697,5.09158 0,2.40277 -0.91534,4.51949 -0.85813,2.11673 -2.05952,3.77578 -1.20138,1.65906 -2.40277,2.86044 -1.14417,1.14418 -1.65905,1.65906 z m -6.4646,0.91534 q 3.2609,0 4.97717,-2.45998 1.77347,-2.45998 1.77347,-7.55156 0,-2.5744 -0.74371,-4.74833 -0.68651,-2.23114 -2.00231,-3.8902 -1.25859,-1.65905 -2.97486,-2.57439 -1.71626,-0.97255 -3.71857,-0.97255 -1.43022,0 -2.74602,0.74371 -1.2586,0.74372 -2.23115,2.17393 -0.97255,1.37302 -1.54463,3.37532 -0.57209,2.00231 -0.57209,4.5195 0,2.68881 0.80092,4.80554 0.85813,2.11672 2.23115,3.60415 1.37301,1.43022 3.08927,2.23115 1.77347,0.74371 3.66136,0.74371 z"
         style="font-style:normal;font-variant:normal;font-weight:normal;font-stretch:normal;font-size:57.20879745px;font-family:Luminari;-inkscape-font-specification:'Luminari, Normal';font-variant-ligatures:normal;font-variant-caps:normal;font-variant-numeric:normal;font-feature-settings:normal;text-align:start;writing-mode:lr-tb;text-anchor:start;stroke-width:0.26458332px"
         id="path1480" />
      <path
         d="m 262.86641,103.87691 q -0.45767,-0.11442 -0.45767,-0.45767 0.0572,-0.34325 0.45767,-0.40046 0.17162,-0.0572 1.08696,-0.40046 0.91535,-0.34326 2.17394,-0.80093 1.3158,-0.45767 2.68881,-0.97255 1.43022,-0.51488 2.51719,-0.858129 0.68651,-0.228835 0.91534,-0.286044 0.28604,-0.114417 0.45767,-0.114417 0.17163,0 0.40046,0.171626 0.22884,0.114418 0.11442,0.400464 -0.17163,0.45767 -0.40046,2.17393 -0.17163,1.71627 -0.34325,3.83299 -0.17163,2.05952 -0.34326,4.11903 -0.11441,2.05952 -0.11441,3.26091 0,4.5767 1.94509,7.09389 1.9451,2.45998 6.06414,2.45998 2.11672,0 3.48973,-0.85814 1.43022,-0.85813 2.17394,-2.0023 0.51488,-0.74372 0.6865,-3.26091 0,-0.45767 0,-1.20138 0.0572,-0.74372 0.0572,-1.54464 0.0572,-0.85813 0.0572,-1.60184 0.0572,-0.80093 0.0572,-1.31581 0.0572,-2.6316 -0.17163,-4.86274 -0.17162,-2.28836 -0.57208,-3.37532 -0.17163,-0.68651 -0.68651,-0.68651 -0.34325,0 -0.68651,0.0572 -0.28604,0 -0.34325,-0.51488 0,-0.17163 0.34325,-0.34325 0.34326,-0.22884 1.31581,-0.6293 0.91534,-0.34325 2.0023,-0.6865 1.14418,-0.343258 2.23115,-0.572093 1.08696,-0.228835 1.9451,-0.286044 0.85813,-0.114417 1.25859,0.05721 0,0.05721 0.0572,0.171626 0.11442,0.05721 0.17163,0.343253 0.11441,0.343249 -0.17163,2.173939 -0.22884,1.77347 -0.51488,5.83529 -0.22884,2.80323 -0.40046,5.43484 -0.17163,2.6316 -0.17163,4.00461 0,2.68882 0.97255,4.29066 1.02976,1.54464 2.51719,1.54464 0.97255,0 1.83068,-0.40046 0.91534,-0.40046 1.3158,-0.68651 0.45767,0 0.45767,0.40047 0.0572,0.40046 -0.17162,0.51488 -0.85814,0.57208 -2.40277,1.43022 -1.48743,0.85813 -3.14649,1.65905 -1.60184,0.74371 -3.08927,1.3158 -1.48743,0.51488 -2.40277,0.51488 -0.45767,0 -0.85813,-0.57209 -0.34326,-0.62929 -0.57209,-1.48742 -0.22884,-0.85814 -0.34325,-1.77348 -0.11442,-0.91534 -0.11442,-1.60184 -1.20139,0.85813 -2.74602,1.83068 -1.54464,0.91534 -3.2037,1.77347 -1.65905,0.80092 -3.31811,1.3158 -1.60184,0.51488 -2.97485,0.51488 -3.48974,0 -5.72088,-1.83068 -2.23115,-1.88789 -2.23115,-4.86275 0,-0.62929 0.11442,-1.88789 0.11442,-1.25859 0.28604,-2.86044 0.17163,-1.60184 0.28605,-3.43253 0.11442,-1.83068 0.11442,-3.54694 0,-2.63161 -0.85814,-4.00462 -0.80092,-1.43022 -2.11672,-1.60184 z"
         style="font-style:normal;font-variant:normal;font-weight:normal;font-stretch:normal;font-size:57.20879745px;font-family:Luminari;-inkscape-font-specification:'Luminari, Normal';font-variant-ligatures:normal;font-variant-caps:normal;font-variant-numeric:normal;font-feature-settings:normal;text-align:start;writing-mode:lr-tb;text-anchor:start;stroke-width:0.26458332px"
         id="path1482" />
      <path
         d="m 318.14084,121.66885 q 0.34325,0.22883 0.34325,0.57208 0,0.45767 -1.3158,1.20139 -1.37301,0.80092 -3.66136,1.88789 -2.23114,1.08697 -4.46229,1.88789 -1.08696,0.40046 -1.9451,0.6865 -0.85813,0.28605 -1.54463,0.28605 -0.80093,0 -2.00231,-0.40046 -1.14418,-0.34326 -2.00231,-0.85814 -0.68651,-0.45767 -1.08697,-0.6865 -0.40046,-0.28604 -0.40046,-0.57209 0,-0.22883 0.11442,-0.40046 0.17163,-0.22884 0.28604,-0.51488 0.0572,-0.17163 0.11442,-0.45767 0.0572,-0.28604 0.0572,-0.57209 0.17163,-1.43022 0.34325,-4.11903 0.22884,-2.74602 0.34325,-6.00693 0.11442,-3.31811 0.17163,-6.80784 0.11442,-3.54695 0.11442,-6.57901 0,-3.718575 -0.0572,-6.006927 0,-2.288352 -0.11442,-3.661363 -0.17162,-1.887891 -0.45767,-2.459979 -0.28604,-0.629296 -0.62929,-0.91534 -0.40047,-0.343253 -0.80093,-0.400462 -0.34325,-0.114418 -0.6865,-0.114418 -0.28605,-0.05721 -0.51488,-0.05721 -0.17163,0 -0.17163,-0.114418 0,-1.88789 1.60185,-1.88789 1.20138,0 2.80323,0.05721 1.65905,0 2.74602,0 0.68651,0 1.43022,-0.05721 0.80092,-0.114418 1.54464,-0.171627 0.74371,-0.114417 1.37301,-0.228835 0.6293,-0.114418 0.91534,-0.228835 0.22884,-0.05721 0.34325,0.171626 0.17163,0.228835 0.17163,0.572088 0.0572,0.343253 -0.11442,0.629297 -0.11442,0.286044 -0.34325,0.343253 -0.34325,0.05721 -0.6293,0.05721 -0.22883,0 -0.85813,0.228835 -0.28604,0.114417 -0.51488,0.743714 -0.22883,0.572088 -0.40046,1.88789 -0.17163,1.258594 -0.34325,3.37532 -0.17163,2.059516 -0.34326,5.206 -0.17162,2.517187 -0.28604,5.14879 -0.0572,2.5744 -0.17163,5.03438 -0.0572,2.45997 -0.11441,4.5767 0,2.11673 0,3.60415 0,1.65906 0,3.37532 0.0572,1.65906 0.34325,2.63161 0.28604,0.91534 1.48743,1.71626 1.20138,0.80092 2.51718,0.80092 1.02976,0 2.11673,-0.28604 1.08697,-0.28604 2.00231,-0.6865 0.91534,-0.40047 1.60184,-0.80093 0.74372,-0.40046 1.08697,-0.62929 z"
         style="font-style:normal;font-variant:normal;font-weight:normal;font-stretch:normal;font-size:57.20879745px;font-family:Luminari;-inkscape-font-specification:'Luminari, Normal';font-variant-ligatures:normal;font-variant-caps:normal;font-variant-numeric:normal;font-feature-settings:normal;text-align:start;writing-mode:lr-tb;text-anchor:start;stroke-width:0.26458332px"
         id="path1484" />
      <path
         d="m 337.38534,122.92744 q -0.6293,0.51488 -1.71627,1.37301 -1.08696,0.85813 -2.51718,1.71626 -1.43022,0.85814 -3.14649,1.48743 -1.71626,0.57209 -3.60415,0.57209 -2.86044,0 -5.09158,-0.97255 -2.23115,-1.02976 -3.77578,-2.68881 -1.48743,-1.71627 -2.28836,-4.00462 -0.74371,-2.28835 -0.74371,-4.86275 0,-3.03206 0.91534,-5.37762 0.91534,-2.34556 2.23114,-4.06183 1.37301,-1.77347 2.91765,-2.91765 1.54464,-1.20138 2.80323,-1.88789 0.57209,-0.34325 1.43022,-0.74371 0.91534,-0.40046 1.9451,-0.743715 1.08697,-0.343253 2.28835,-0.572088 1.2586,-0.286044 2.5744,-0.286044 2.45998,0 4.74833,0.629297 2.34556,0.6293 4.11903,2.00231 1.77348,1.3158 2.86044,3.43253 1.08697,2.11672 1.08697,5.09158 0,2.40277 -0.91534,4.51949 -0.85813,2.11673 -2.05952,3.77578 -1.20138,1.65906 -2.40277,2.86044 -1.14417,1.14418 -1.65905,1.65906 z m -6.4646,0.91534 q 3.26091,0 4.97717,-2.45998 1.77347,-2.45998 1.77347,-7.55156 0,-2.5744 -0.74371,-4.74833 -0.68651,-2.23114 -2.00231,-3.8902 -1.25859,-1.65905 -2.97486,-2.57439 -1.71626,-0.97255 -3.71857,-0.97255 -1.43022,0 -2.74602,0.74371 -1.25859,0.74372 -2.23114,2.17393 -0.97255,1.37302 -1.54464,3.37532 -0.57209,2.00231 -0.57209,4.5195 0,2.68881 0.80092,4.80554 0.85814,2.11672 2.23115,3.60415 1.37301,1.43022 3.08927,2.23115 1.77347,0.74371 3.66136,0.74371 z"
         style="font-style:normal;font-variant:normal;font-weight:normal;font-stretch:normal;font-size:57.20879745px;font-family:Luminari;-inkscape-font-specification:'Luminari, Normal';font-variant-ligatures:normal;font-variant-caps:normal;font-variant-numeric:normal;font-feature-settings:normal;text-align:start;writing-mode:lr-tb;text-anchor:start;stroke-width:0.26458332px"
         id="path1486" />
      <path
         d="m 374.41195,119.55212 q 0.11442,-0.11442 0.17163,0.0572 0.11442,0.11442 0.11442,0.40046 0.0572,0.22884 0,0.51488 -0.0572,0.28604 -0.22884,0.45767 -1.14417,1.08697 -2.86044,2.28835 -1.71626,1.20139 -3.54694,2.23114 -0.51488,0.28605 -1.43022,0.74372 -0.91534,0.45767 -2.05952,0.91534 -1.08697,0.40046 -2.28835,0.68651 -1.14418,0.34325 -2.17394,0.34325 -2.05951,0 -3.89019,-0.80092 -1.83069,-0.80093 -3.2037,-2.17394 -1.37301,-1.43022 -2.17393,-3.37532 -0.74372,-1.9451 -0.74372,-4.23345 0,-2.45998 0.68651,-4.63391 0.68651,-2.17394 1.54464,-3.8902 0.91534,-1.71626 1.71626,-2.86044 0.80092,-1.20138 1.08697,-1.77347 -1.08697,-0.0572 -2.00231,-0.0572 -0.85813,-0.0572 -1.65905,-0.0572 -1.83069,0 -3.08928,0.0572 -1.25859,0 -2.23114,0.22883 -0.45767,0.11442 -0.85813,0.45767 -0.40047,0.34326 -0.68651,0.51488 -0.11442,-0.11441 -0.28604,-0.28604 -0.22884,-0.22884 -0.22884,-0.45767 0,-0.11442 0.0572,-0.17163 0,-0.0572 0.74371,-0.62929 0.74372,-0.6293 1.83069,-1.43022 1.14417,-0.85814 2.45997,-1.83069 1.37301,-1.029754 2.5744,-1.887886 1.25859,-0.858132 2.11672,-1.43022 0.91535,-0.629297 1.20139,-0.743714 0.34325,-0.114418 0.68651,0.114417 0.34325,0.228836 0.22883,0.343253 -0.17163,0.114418 -0.51488,0.45767 -0.34325,0.286044 -0.22883,0.51488 0.62929,0.514879 2.17393,0.91534 1.54464,0.400462 3.48974,0.686506 1.9451,0.228835 4.00461,0.400464 2.05952,0.11442 3.71857,0.11442 2.45998,0 3.94741,-0.11442 1.48743,-0.171629 2.45998,-0.400464 0.91534,-0.228835 1.20138,-0.343253 0.0572,0 0.22884,0.171627 0.17163,0.171626 0.17163,0.400461 0,0.114419 -0.85814,0.572089 -0.80092,0.45767 -1.65905,0.97255 -0.51488,0.28604 -1.25859,0.74371 -0.68651,0.45767 -1.54464,0.91534 -0.80093,0.40047 -1.71627,0.74372 -0.91534,0.34325 -1.77347,0.40046 -0.85813,0.11442 -2.00231,0.17163 -1.14417,0.0572 -2.40277,0.11441 -1.25859,0 -2.57439,0.0572 -1.2586,0 -2.34556,0 -0.17163,0.28605 -0.57209,0.97255 -0.34325,0.6293 -0.68651,1.65906 -0.34325,1.02976 -0.62929,2.34556 -0.28605,1.3158 -0.28605,2.86044 0,2.34556 0.68651,4.34787 0.74371,1.9451 2.00231,3.37532 1.3158,1.43022 3.08927,2.23114 1.77347,0.80092 3.83299,0.80092 1.20139,0 2.28835,-0.28604 1.14418,-0.28605 2.11673,-0.74372 1.02976,-0.45767 1.88789,-0.97255 0.85813,-0.57208 1.48743,-1.08696 z"
         style="font-style:normal;font-variant:normal;font-weight:normal;font-stretch:normal;font-size:57.20879745px;font-family:Luminari;-inkscape-font-specification:'Luminari, Normal';font-variant-ligatures:normal;font-variant-caps:normal;font-variant-numeric:normal;font-feature-settings:normal;text-align:start;writing-mode:lr-tb;text-anchor:start;stroke-width:0.26458332px"
         id="path1488" />
      <path
         d="m 401.22857,119.55212 q 0.11442,-0.11442 0.17163,0.0572 0.11442,0.11442 0.11442,0.40046 0.0572,0.22884 0,0.51488 -0.0572,0.28604 -0.22884,0.45767 -1.14417,1.08697 -2.86044,2.28835 -1.71626,1.20139 -3.54694,2.23114 -0.51488,0.28605 -1.43022,0.74372 -0.91534,0.45767 -2.05952,0.91534 -1.08697,0.40046 -2.28835,0.68651 -1.14418,0.34325 -2.17394,0.34325 -2.05951,0 -3.89019,-0.80092 -1.83069,-0.80093 -3.2037,-2.17394 -1.37301,-1.43022 -2.17393,-3.37532 -0.74372,-1.9451 -0.74372,-4.23345 0,-2.45998 0.68651,-4.63391 0.68651,-2.17394 1.54464,-3.8902 0.91534,-1.71626 1.71626,-2.86044 0.80092,-1.20138 1.08697,-1.77347 -1.08697,-0.0572 -2.00231,-0.0572 -0.85813,-0.0572 -1.65905,-0.0572 -1.83069,0 -3.08928,0.0572 -1.25859,0 -2.23114,0.22883 -0.45767,0.11442 -0.85814,0.45767 -0.40046,0.34326 -0.6865,0.51488 -0.11442,-0.11441 -0.28604,-0.28604 -0.22884,-0.22884 -0.22884,-0.45767 0,-0.11442 0.0572,-0.17163 0,-0.0572 0.74371,-0.62929 0.74372,-0.6293 1.83068,-1.43022 1.14418,-0.85814 2.45998,-1.83069 1.37301,-1.029754 2.5744,-1.887886 1.25859,-0.858132 2.11672,-1.43022 0.91535,-0.629297 1.20139,-0.743714 0.34325,-0.114418 0.6865,0.114417 0.34326,0.228836 0.22884,0.343253 -0.17163,0.114418 -0.51488,0.45767 -0.34325,0.286044 -0.22883,0.51488 0.62929,0.514879 2.17393,0.91534 1.54464,0.400462 3.48974,0.686506 1.9451,0.228835 4.00461,0.400464 2.05952,0.11442 3.71857,0.11442 2.45998,0 3.94741,-0.11442 1.48743,-0.171629 2.45998,-0.400464 0.91534,-0.228835 1.20138,-0.343253 0.0572,0 0.22884,0.171627 0.17163,0.171626 0.17163,0.400461 0,0.114419 -0.85814,0.572089 -0.80092,0.45767 -1.65905,0.97255 -0.51488,0.28604 -1.25859,0.74371 -0.68651,0.45767 -1.54464,0.91534 -0.80093,0.40047 -1.71627,0.74372 -0.91534,0.34325 -1.77347,0.40046 -0.85813,0.11442 -2.00231,0.17163 -1.14417,0.0572 -2.40277,0.11441 -1.25859,0 -2.57439,0.0572 -1.2586,0 -2.34556,0 -0.17163,0.28605 -0.57209,0.97255 -0.34325,0.6293 -0.68651,1.65906 -0.34325,1.02976 -0.62929,2.34556 -0.28605,1.3158 -0.28605,2.86044 0,2.34556 0.68651,4.34787 0.74371,1.9451 2.00231,3.37532 1.3158,1.43022 3.08927,2.23114 1.77347,0.80092 3.83299,0.80092 1.20139,0 2.28835,-0.28604 1.14418,-0.28605 2.11673,-0.74372 1.02976,-0.45767 1.88789,-0.97255 0.85813,-0.57208 1.48743,-1.08696 z"
         style="font-style:normal;font-variant:normal;font-weight:normal;font-stretch:normal;font-size:57.20879745px;font-family:Luminari;-inkscape-font-specification:'Luminari, Normal';font-variant-ligatures:normal;font-variant-caps:normal;font-variant-numeric:normal;font-feature-settings:normal;text-align:start;writing-mode:lr-tb;text-anchor:start;stroke-width:0.26458332px"
         id="path1490" />
      <path
         d="m 427.58752,120.81071 q -0.62929,0.68651 -1.9451,1.88789 -1.3158,1.20139 -3.20369,2.40277 -1.83068,1.20139 -4.11903,2.05952 -2.28835,0.85813 -4.86275,0.85813 -2.34556,0 -4.5767,-0.6865 -2.23115,-0.74372 -4.00462,-2.17394 -1.77347,-1.48743 -2.86044,-3.71857 -1.02976,-2.28835 -1.02976,-5.43484 0,-2.57439 0.34325,-4.40507 0.34326,-1.88789 0.91535,-3.2609 0.57208,-1.43022 1.25859,-2.40277 0.74371,-1.02976 1.48743,-1.83069 0.91534,-1.02975 2.23114,-1.94509 1.3158,-0.91535 2.80323,-1.65906 1.54464,-0.743714 3.20369,-1.144176 1.71627,-0.45767 3.43253,-0.45767 3.08928,0 4.80554,1.029758 1.77347,1.029758 1.77347,2.860438 0,1.14418 -0.6865,2.11673 0.57209,-0.17163 1.43022,-0.57209 0.91534,-0.40046 1.83068,-0.80092 0.91534,-0.45767 1.60185,-0.80093 0.74371,-0.34325 0.97255,-0.51488 0.11441,-0.11441 0.22883,-0.0572 0.17163,0 0.17163,0.17162 0,0.74372 -0.28605,1.2586 -0.28604,0.45767 -0.6865,0.74371 -0.91534,0.57209 -2.63161,1.43022 -1.71626,0.85813 -3.83299,1.83068 -2.05951,0.91534 -4.29066,1.88789 -2.23114,0.91534 -4.23345,1.77347 -1.9451,0.85814 -3.43253,1.54464 -1.43022,0.6293 -1.94509,0.91534 0,1.9451 0.74371,3.66137 0.80092,1.65905 2.17393,2.91764 1.37302,1.2586 3.26091,2.00231 1.94509,0.68651 4.23345,0.68651 2.05951,0 3.71857,-0.40046 1.65905,-0.45767 2.80323,-0.97255 1.14418,-0.57209 1.77347,-0.97255 0.68651,-0.45767 0.74372,-0.45767 0.22883,0 0.45767,0.22883 0.22883,0.17163 0.22883,0.40046 z m -20.13749,-8.75294 q 0.97255,-0.34326 2.17393,-0.80093 1.25859,-0.51487 2.40277,-1.08696 1.20138,-0.57209 2.17393,-1.08697 0.97255,-0.51488 1.48743,-0.91534 1.02976,-0.74372 1.02976,-2.51719 0,-0.6865 -0.28604,-1.43022 -0.22884,-0.74371 -0.74372,-1.3158 -0.51488,-0.6293 -1.25859,-0.97255 -0.74372,-0.40046 -1.65906,-0.40046 -0.80092,0 -1.71626,0.57209 -0.91534,0.51488 -1.71626,1.77347 -0.80093,1.20138 -1.37302,3.2609 -0.51487,2.00231 -0.51487,4.91996 z"
         style="font-style:normal;font-variant:normal;font-weight:normal;font-stretch:normal;font-size:57.20879745px;font-family:Luminari;-inkscape-font-specification:'Luminari, Normal';font-variant-ligatures:normal;font-variant-caps:normal;font-variant-numeric:normal;font-feature-settings:normal;text-align:start;writing-mode:lr-tb;text-anchor:start;stroke-width:0.26458332px"
         id="path1492" />
    </g>
  </g>
</svg>
