<?xml version="1.0" encoding="UTF-8" standalone="no"?>
<!-- Created with Inkscape (http://www.inkscape.org/) -->

<svg
   xmlns:dc="http://purl.org/dc/elements/1.1/"
   xmlns:cc="http://creativecommons.org/ns#"
   xmlns:rdf="http://www.w3.org/1999/02/22-rdf-syntax-ns#"
   xmlns:svg="http://www.w3.org/2000/svg"
   xmlns="http://www.w3.org/2000/svg"
   xmlns:sodipodi="http://sodipodi.sourceforge.net/DTD/sodipodi-0.dtd"
   xmlns:inkscape="http://www.inkscape.org/namespaces/inkscape"
   width="297mm"
   height="210mm"
   viewBox="0 0 297 210"
   version="1.1"
   id="svg10641"
   inkscape:version="0.92.2 5c3e80d, 2017-08-06"
   sodipodi:docname="mainson4.svg">
  <defs
     id="defs10635" />
  <sodipodi:namedview
     id="base"
     pagecolor="#ffffff"
     bordercolor="#666666"
     borderopacity="1.0"
     inkscape:pageopacity="0.0"
     inkscape:pageshadow="2"
     inkscape:zoom="0.98603159"
     inkscape:cx="314.85258"
     inkscape:cy="588.77155"
     inkscape:document-units="mm"
     inkscape:current-layer="layer1"
     showgrid="false"
     inkscape:window-width="1280"
     inkscape:window-height="703"
     inkscape:window-x="0"
     inkscape:window-y="1"
     inkscape:window-maximized="1"
     units="mm"
     objecttolerance="20"
     gridtolerance="10" />
  <metadata
     id="metadata10638">
    <rdf:RDF>
      <cc:Work
         rdf:about="">
        <dc:format>image/svg+xml</dc:format>
        <dc:type
           rdf:resource="http://purl.org/dc/dcmitype/StillImage" />
        <dc:title></dc:title>
      </cc:Work>
    </rdf:RDF>
  </metadata>
  <g
     inkscape:label="Calque 1"
     inkscape:groupmode="layer"
     id="layer1"
     transform="translate(0,-87)">
    <path
       style="fill:none;stroke:#000000;stroke-width:0.37795275;stroke-linejoin:round;stroke-miterlimit:4;stroke-dasharray:none;stroke-opacity:1"
       d="M 107.26758 16.732422 L 107.26758 27.699219 L 42.966797 27.699219 L 42.966797 101.5 L 32.066406 101.5 L 32.066406 176.90039 L 42.966797 176.90039 L 42.966797 271.59961 L 32.066406 271.59961 L 32.066406 346.9668 L 42.966797 346.9668 L 42.966797 441.66602 L 32.066406 441.66602 L 32.066406 517.0332 L 42.966797 517.0332 L 42.966797 611.73242 L 32.066406 611.73242 L 32.066406 687.13281 L 42.966797 687.13281 L 42.966797 760.93359 L 42.966797 772.24805 L 371.80078 772.24805 L 371.80078 760.93359 L 371.80078 571.9668 L 674.16602 571.9668 L 674.16602 760.93359 L 674.16602 772.25 L 1002.9668 772.25 L 1002.9668 760.93359 L 1002.9668 687.13281 L 1013.9336 687.13281 L 1013.9336 611.73242 L 1002.9668 611.73242 L 1002.9668 517.0332 L 1013.9336 517.0332 L 1013.9336 441.66602 L 1002.9668 441.66602 L 1002.9668 346.9668 L 1013.9336 346.9668 L 1013.9336 271.59961 L 1002.9668 271.59961 L 1002.9668 176.90039 L 1013.9336 176.90039 L 1013.9336 101.5 L 1002.9668 101.5 L 1002.9668 27.699219 L 938.73242 27.699219 L 938.73242 16.732422 L 863.36719 16.732422 L 863.36719 27.699219 L 787.5 27.699219 L 787.5 16.732422 L 712.13281 16.732422 L 712.13281 27.699219 L 636.30078 27.699219 L 636.30078 16.732422 L 560.93359 16.732422 L 560.93359 27.699219 L 485.06641 27.699219 L 485.06641 16.732422 L 409.69922 16.732422 L 409.69922 27.699219 L 333.86719 27.699219 L 333.86719 16.732422 L 258.5 16.732422 L 258.5 27.699219 L 182.63281 27.699219 L 182.63281 16.732422 L 107.26758 16.732422 z "
       transform="matrix(0.26458333,0,0,0.26458333,0,87)"
       id="rect11186" />
    <g
       id="g11264"
       transform="matrix(1,0,0,-1,455.7122,389.99047)">
      <rect
         y="120.21812"
         x="-115.87145"
         height="19.943518"
         width="2.9435177"
         id="rect11192"
         style="fill:none;stroke:#000000;stroke-width:0.05648223;stroke-linejoin:round;stroke-miterlimit:4;stroke-opacity:1;stroke-dasharray:none" />
      <rect
         y="165.21811"
         x="-115.87145"
         height="19.943518"
         width="2.9435177"
         id="rect11192-4"
         style="fill:none;stroke:#000000;stroke-width:0.05648223;stroke-linejoin:round;stroke-miterlimit:4;stroke-opacity:1;stroke-dasharray:none" />
      <rect
         y="210.21811"
         x="-115.87145"
         height="19.943518"
         width="2.9435177"
         id="rect11192-4-6"
         style="fill:none;stroke:#000000;stroke-width:0.05648223;stroke-linejoin:round;stroke-miterlimit:4;stroke-opacity:1;stroke-dasharray:none" />
      <rect
         y="255.21811"
         x="-115.87145"
         height="19.943518"
         width="2.9435177"
         id="rect11192-4-6-6"
         style="fill:none;stroke:#000000;stroke-width:0.05648223;stroke-linejoin:round;stroke-miterlimit:4;stroke-opacity:1;stroke-dasharray:none" />
    </g>
    <g
       id="g3113">
      <rect
         transform="matrix(0,1,1,0,0,0)"
         y="-27.320316"
         x="2.3491514"
         height="19.943518"
         width="2.9435177"
         id="rect11192-0-94"
         style="fill:none;stroke:#000000;stroke-width:0.05648223;stroke-linejoin:round;stroke-miterlimit:4;stroke-opacity:1;stroke-dasharray:none" />
      <rect
         transform="matrix(0,1,1,0,0,0)"
         y="12.689243"
         x="2.3491514"
         height="19.943518"
         width="2.9435177"
         id="rect11192-4-61-7"
         style="fill:none;stroke:#000000;stroke-width:0.05648223;stroke-linejoin:round;stroke-miterlimit:4;stroke-opacity:1;stroke-dasharray:none" />
      <rect
         transform="matrix(0,1,1,0,0,0)"
         y="52.698788"
         x="2.3491514"
         height="19.943518"
         width="2.9435177"
         id="rect11192-4-6-4-4"
         style="fill:none;stroke:#000000;stroke-width:0.05648223;stroke-linejoin:round;stroke-miterlimit:4;stroke-opacity:1;stroke-dasharray:none" />
      <rect
         transform="matrix(0,1,1,0,0,0)"
         y="92.708336"
         x="2.3491514"
         height="19.943518"
         width="2.9435177"
         id="rect11192-4-6-6-9-7"
         style="fill:none;stroke:#000000;stroke-width:0.05648223;stroke-linejoin:round;stroke-miterlimit:4;stroke-opacity:1;stroke-dasharray:none" />
      <rect
         transform="matrix(0,1,1,0,0,0)"
         y="-107.33944"
         x="2.3491514"
         height="19.943518"
         width="2.9435177"
         id="rect11192-0-9-8"
         style="fill:none;stroke:#000000;stroke-width:0.05648223;stroke-linejoin:round;stroke-miterlimit:4;stroke-opacity:1;stroke-dasharray:none" />
      <rect
         transform="matrix(0,1,1,0,0,0)"
         y="-67.329887"
         x="2.3491514"
         height="19.943518"
         width="2.9435177"
         id="rect11192-4-61-0-7"
         style="fill:none;stroke:#000000;stroke-width:0.05648223;stroke-linejoin:round;stroke-miterlimit:4;stroke-opacity:1;stroke-dasharray:none" />
    </g>
  </g>
</svg>
