<?xml version="1.0" encoding="UTF-8" standalone="no"?>
<!-- Created with Inkscape (http://www.inkscape.org/) -->

<svg
   xmlns:dc="http://purl.org/dc/elements/1.1/"
   xmlns:cc="http://creativecommons.org/ns#"
   xmlns:rdf="http://www.w3.org/1999/02/22-rdf-syntax-ns#"
   xmlns:svg="http://www.w3.org/2000/svg"
   xmlns="http://www.w3.org/2000/svg"
   xmlns:sodipodi="http://sodipodi.sourceforge.net/DTD/sodipodi-0.dtd"
   xmlns:inkscape="http://www.inkscape.org/namespaces/inkscape"
   width="297mm"
   height="210mm"
   viewBox="0 0 297 210"
   version="1.1"
   id="svg10641"
   inkscape:version="0.92.3 (2405546, 2018-03-11)"
   sodipodi:docname="mainson4.svg">
  <defs
     id="defs10635" />
  <sodipodi:namedview
     id="base"
     pagecolor="#ffffff"
     bordercolor="#666666"
     borderopacity="1.0"
     inkscape:pageopacity="0.0"
     inkscape:pageshadow="2"
     inkscape:zoom="0.7"
     inkscape:cx="911.56958"
     inkscape:cy="242.15458"
     inkscape:document-units="mm"
     inkscape:current-layer="layer1"
     showgrid="false"
     inkscape:window-width="1920"
     inkscape:window-height="1018"
     inkscape:window-x="-8"
     inkscape:window-y="-8"
     inkscape:window-maximized="1" />
  <metadata
     id="metadata10638">
    <rdf:RDF>
      <cc:Work
         rdf:about="">
        <dc:format>image/svg+xml</dc:format>
        <dc:type
           rdf:resource="http://purl.org/dc/dcmitype/StillImage" />
        <dc:title></dc:title>
      </cc:Work>
    </rdf:RDF>
  </metadata>
  <g
     inkscape:label="Calque 1"
     inkscape:groupmode="layer"
     id="layer1"
     transform="translate(0,-87)">
    <path
       style="fill:none;stroke:#000000;stroke-width:0.37795275;stroke-linejoin:round;stroke-miterlimit:4;stroke-dasharray:none;stroke-opacity:1"
       d="M 42.974609 27.701172 L 42.974609 101.50977 L 32.078125 101.50977 L 32.078125 176.88672 L 42.974609 176.88672 L 42.974609 271.58789 L 32.078125 271.58789 L 32.078125 346.96484 L 42.974609 346.96484 L 42.974609 441.66602 L 32.078125 441.66602 L 32.078125 517.04297 L 42.974609 517.04297 L 42.974609 611.74414 L 32.078125 611.74414 L 32.078125 687.12109 L 42.974609 687.12109 L 42.974609 760.92969 L 371.79297 760.92969 L 371.79297 571.95312 L 674.15625 571.95312 L 674.15625 760.92969 L 1002.9746 760.92969 L 1002.9746 687.12109 L 1013.9219 687.12109 L 1013.9219 611.74414 L 1002.9746 611.74414 L 1002.9746 517.04297 L 1013.9219 517.04297 L 1013.9219 441.66602 L 1002.9746 441.66602 L 1002.9746 346.96484 L 1013.9219 346.96484 L 1013.9219 271.58789 L 1002.9746 271.58789 L 1002.9746 176.88672 L 1013.9219 176.88672 L 1013.9219 101.50977 L 1002.9746 101.50977 L 1002.9746 27.701172 L 42.974609 27.701172 z "
       transform="matrix(0.26458333,0,0,0.26458333,0,87)"
       id="rect11186" />
    <g
       id="g11264"
       transform="translate(455.7122,-5.3892764)">
      <rect
         y="120.21812"
         x="-115.87145"
         height="19.943518"
         width="2.9435177"
         id="rect11192"
         style="fill:none;stroke:#000000;stroke-width:0.05648223;stroke-linejoin:round;stroke-miterlimit:4;stroke-dasharray:none;stroke-opacity:1" />
      <rect
         y="165.21811"
         x="-115.87145"
         height="19.943518"
         width="2.9435177"
         id="rect11192-4"
         style="fill:none;stroke:#000000;stroke-width:0.05648223;stroke-linejoin:round;stroke-miterlimit:4;stroke-dasharray:none;stroke-opacity:1" />
      <rect
         y="210.21811"
         x="-115.87145"
         height="19.943518"
         width="2.9435177"
         id="rect11192-4-6"
         style="fill:none;stroke:#000000;stroke-width:0.05648223;stroke-linejoin:round;stroke-miterlimit:4;stroke-dasharray:none;stroke-opacity:1" />
      <rect
         y="255.21811"
         x="-115.87145"
         height="19.943518"
         width="2.9435177"
         id="rect11192-4-6-6"
         style="fill:none;stroke:#000000;stroke-width:0.05648223;stroke-linejoin:round;stroke-miterlimit:4;stroke-dasharray:none;stroke-opacity:1" />
    </g>
  </g>
</svg>
