<?xml version="1.0" encoding="UTF-8" standalone="no"?>
<!-- Created with Inkscape (http://www.inkscape.org/) -->

<svg
   xmlns:dc="http://purl.org/dc/elements/1.1/"
   xmlns:cc="http://creativecommons.org/ns#"
   xmlns:rdf="http://www.w3.org/1999/02/22-rdf-syntax-ns#"
   xmlns:svg="http://www.w3.org/2000/svg"
   xmlns="http://www.w3.org/2000/svg"
   xmlns:sodipodi="http://sodipodi.sourceforge.net/DTD/sodipodi-0.dtd"
   xmlns:inkscape="http://www.inkscape.org/namespaces/inkscape"
   width="297mm"
   height="210mm"
   viewBox="0 0 297 210"
   version="1.1"
   id="svg10641"
   inkscape:version="0.48.5 r10040"
   sodipodi:docname="mainson4.svg">
  <defs
     id="defs10635" />
  <sodipodi:namedview
     id="base"
     pagecolor="#ffffff"
     bordercolor="#666666"
     borderopacity="1.0"
     inkscape:pageopacity="0.0"
     inkscape:pageshadow="2"
     inkscape:zoom="0.79"
     inkscape:cx="38.258131"
     inkscape:cy="551.55702"
     inkscape:document-units="mm"
     inkscape:current-layer="layer1"
     showgrid="false"
     inkscape:window-width="1280"
     inkscape:window-height="706"
     inkscape:window-x="0"
     inkscape:window-y="1"
     inkscape:window-maximized="1" />
  <metadata
     id="metadata10638">
    <rdf:RDF>
      <cc:Work
         rdf:about="">
        <dc:format>image/svg+xml</dc:format>
        <dc:type
           rdf:resource="http://purl.org/dc/dcmitype/StillImage" />
        <dc:title />
      </cc:Work>
    </rdf:RDF>
  </metadata>
  <g
     inkscape:label="Calque 1"
     inkscape:groupmode="layer"
     id="layer1"
     transform="translate(0,-87)">
    <path
       style="fill:none;stroke:#000000;stroke-width:0.35433069;stroke-linejoin:round;stroke-miterlimit:4;stroke-opacity:1;stroke-dasharray:none"
       d="M 100.5625 15.6875 L 100.5625 25.96875 L 40.28125 25.96875 L 40.28125 95.15625 L 30.0625 95.15625 L 30.0625 165.84375 L 40.28125 165.84375 L 40.28125 254.625 L 30.0625 254.625 L 30.0625 325.28125 L 40.28125 325.28125 L 40.28125 414.0625 L 30.0625 414.0625 L 30.0625 484.71875 L 40.28125 484.71875 L 40.28125 573.5 L 30.0625 573.5 L 30.0625 644.1875 L 40.28125 644.1875 L 40.28125 713.375 L 348.5625 713.375 L 348.5625 536.21875 L 632.03125 536.21875 L 632.03125 713.375 L 940.28125 713.375 L 940.28125 644.1875 L 950.5625 644.1875 L 950.5625 573.5 L 940.28125 573.5 L 940.28125 484.71875 L 950.5625 484.71875 L 950.5625 414.0625 L 940.28125 414.0625 L 940.28125 325.28125 L 950.5625 325.28125 L 950.5625 254.625 L 940.28125 254.625 L 940.28125 165.84375 L 950.5625 165.84375 L 950.5625 95.15625 L 940.28125 95.15625 L 940.28125 25.96875 L 880.0625 25.96875 L 880.0625 15.6875 L 809.40625 15.6875 L 809.40625 25.96875 L 738.28125 25.96875 L 738.28125 15.6875 L 667.625 15.6875 L 667.625 25.96875 L 596.53125 25.96875 L 596.53125 15.6875 L 525.875 15.6875 L 525.875 25.96875 L 454.75 25.96875 L 454.75 15.6875 L 384.09375 15.6875 L 384.09375 25.96875 L 313 25.96875 L 313 15.6875 L 242.34375 15.6875 L 242.34375 25.96875 L 171.21875 25.96875 L 171.21875 15.6875 L 100.5625 15.6875 z "
       transform="matrix(0.28222223,0,0,0.28222223,0,86.999999)"
       id="rect11186" />
    <g
       id="g11264"
       transform="matrix(1,0,0,-1,455.7122,389.99047)">
      <rect
         y="120.21812"
         x="-115.87145"
         height="19.943518"
         width="2.9435177"
         id="rect11192"
         style="fill:none;stroke:#000000;stroke-width:0.05648223;stroke-linejoin:round;stroke-miterlimit:4;stroke-opacity:1;stroke-dasharray:none" />
      <rect
         y="165.21811"
         x="-115.87145"
         height="19.943518"
         width="2.9435177"
         id="rect11192-4"
         style="fill:none;stroke:#000000;stroke-width:0.05648223;stroke-linejoin:round;stroke-miterlimit:4;stroke-opacity:1;stroke-dasharray:none" />
      <rect
         y="210.21811"
         x="-115.87145"
         height="19.943518"
         width="2.9435177"
         id="rect11192-4-6"
         style="fill:none;stroke:#000000;stroke-width:0.05648223;stroke-linejoin:round;stroke-miterlimit:4;stroke-opacity:1;stroke-dasharray:none" />
      <rect
         y="255.21811"
         x="-115.87145"
         height="19.943518"
         width="2.9435177"
         id="rect11192-4-6-6"
         style="fill:none;stroke:#000000;stroke-width:0.05648223;stroke-linejoin:round;stroke-miterlimit:4;stroke-opacity:1;stroke-dasharray:none" />
    </g>
    <g
       id="g3113">
      <rect
         transform="matrix(0,1,1,0,0,0)"
         y="-27.320316"
         x="2.3491514"
         height="19.943518"
         width="2.9435177"
         id="rect11192-0-94"
         style="fill:none;stroke:#000000;stroke-width:0.05648223;stroke-linejoin:round;stroke-miterlimit:4;stroke-opacity:1;stroke-dasharray:none" />
      <rect
         transform="matrix(0,1,1,0,0,0)"
         y="12.689243"
         x="2.3491514"
         height="19.943518"
         width="2.9435177"
         id="rect11192-4-61-7"
         style="fill:none;stroke:#000000;stroke-width:0.05648223;stroke-linejoin:round;stroke-miterlimit:4;stroke-opacity:1;stroke-dasharray:none" />
      <rect
         transform="matrix(0,1,1,0,0,0)"
         y="52.698788"
         x="2.3491514"
         height="19.943518"
         width="2.9435177"
         id="rect11192-4-6-4-4"
         style="fill:none;stroke:#000000;stroke-width:0.05648223;stroke-linejoin:round;stroke-miterlimit:4;stroke-opacity:1;stroke-dasharray:none" />
      <rect
         transform="matrix(0,1,1,0,0,0)"
         y="92.708336"
         x="2.3491514"
         height="19.943518"
         width="2.9435177"
         id="rect11192-4-6-6-9-7"
         style="fill:none;stroke:#000000;stroke-width:0.05648223;stroke-linejoin:round;stroke-miterlimit:4;stroke-opacity:1;stroke-dasharray:none" />
      <rect
         transform="matrix(0,1,1,0,0,0)"
         y="-107.33944"
         x="2.3491514"
         height="19.943518"
         width="2.9435177"
         id="rect11192-0-9-8"
         style="fill:none;stroke:#000000;stroke-width:0.05648223;stroke-linejoin:round;stroke-miterlimit:4;stroke-opacity:1;stroke-dasharray:none" />
      <rect
         transform="matrix(0,1,1,0,0,0)"
         y="-67.329887"
         x="2.3491514"
         height="19.943518"
         width="2.9435177"
         id="rect11192-4-61-0-7"
         style="fill:none;stroke:#000000;stroke-width:0.05648223;stroke-linejoin:round;stroke-miterlimit:4;stroke-opacity:1;stroke-dasharray:none" />
    </g>
  </g>
</svg>
