<?xml version="1.0" encoding="UTF-8" standalone="no"?>
<!-- Created with Inkscape (http://www.inkscape.org/) -->

<svg
   xmlns:dc="http://purl.org/dc/elements/1.1/"
   xmlns:cc="http://creativecommons.org/ns#"
   xmlns:rdf="http://www.w3.org/1999/02/22-rdf-syntax-ns#"
   xmlns:svg="http://www.w3.org/2000/svg"
   xmlns="http://www.w3.org/2000/svg"
   xmlns:sodipodi="http://sodipodi.sourceforge.net/DTD/sodipodi-0.dtd"
   xmlns:inkscape="http://www.inkscape.org/namespaces/inkscape"
   width="210mm"
   height="297mm"
   viewBox="0 0 210 297"
   version="1.1"
   id="svg3708"
   inkscape:version="0.92.2 5c3e80d, 2017-08-06"
   sodipodi:docname="various.svg">
  <defs
     id="defs3702" />
  <sodipodi:namedview
     id="base"
     pagecolor="#ffffff"
     bordercolor="#666666"
     borderopacity="1.0"
     inkscape:pageopacity="0.0"
     inkscape:pageshadow="2"
     inkscape:zoom="0.35"
     inkscape:cx="-117.14286"
     inkscape:cy="560"
     inkscape:document-units="mm"
     inkscape:current-layer="layer1"
     showgrid="false"
     inkscape:window-width="1280"
     inkscape:window-height="699"
     inkscape:window-x="0"
     inkscape:window-y="1"
     inkscape:window-maximized="1" />
  <metadata
     id="metadata3705">
    <rdf:RDF>
      <cc:Work
         rdf:about="">
        <dc:format>image/svg+xml</dc:format>
        <dc:type
           rdf:resource="http://purl.org/dc/dcmitype/StillImage" />
        <dc:title></dc:title>
      </cc:Work>
    </rdf:RDF>
  </metadata>
  <g
     inkscape:label="Calque 1"
     inkscape:groupmode="layer"
     id="layer1">
    <path
       style="opacity:1;fill:none;fill-opacity:1;stroke:#0000ff;stroke-width:0.1;stroke-miterlimit:4;stroke-dasharray:none;stroke-opacity:1"
       d="m 16.693076,10.539513 a 3.4000001,3.4000001 0 0 0 -3.40031,3.400311 h 1.399915 v 3.083539 h -1.549776 v 2.905251 h 0.07183 a 4.9500002,4.4901276 0 0 0 2.45308,3.525359 4.9500002,4.4901276 0 0 0 4.950085,0 4.9500002,4.4901276 0 0 0 2.454631,-3.525359 h 0.07028 v -2.905251 h -1.549776 v -3.083539 h 1.399914 a 3.4000001,3.4000001 0 0 0 -3.399793,-3.399791 v 3.399791 3.083539 h -0.01292 v 0.972031 a 2.0999999,2.0999999 0 0 1 0.662493,1.528069 2.0999999,2.0999999 0 0 1 -2.099614,2.09961 2.0999999,2.0999999 0 0 1 -2.10013,-2.09961 2.0999999,2.0999999 0 0 1 0.65009,-1.51877 v -0.98133 -3.083539 z"
       id="rect6546-7"
       inkscape:connector-curvature="0" />
    <path
       style="opacity:1;fill:none;fill-opacity:1;stroke:#ff8000;stroke-width:0.1;stroke-miterlimit:4;stroke-dasharray:none;stroke-opacity:1"
       d="m 81.554343,14.101285 c -1.108001,0 -1.999877,0.89189 -1.999877,1.99988 v 16.00006 c 0,1.10799 0.891876,1.99987 1.999877,1.99987 1.108001,0 2.000395,-0.89188 2.000395,-1.99987 v -4.9103 -3.189989 l 3.200321,0.007 V 14.101565 H 86.45482 83.554738 81.654596 v 0.005 c -0.03341,-0.002 -0.06641,-0.005 -0.100253,-0.005 z"
       id="rect1252-8-8"
       inkscape:connector-curvature="0"
       sodipodi:nodetypes="sssssccccccccs" />
    <path
       style="opacity:1;fill:none;fill-opacity:1;stroke:#ff8000;stroke-width:0.1;stroke-miterlimit:4;stroke-dasharray:none;stroke-opacity:1"
       d="m 103.90259,12.83468 c -1.108,0 -1.99988,0.89189 -1.99988,1.99988 v 16.00006 c 0,1.10799 0.89188,1.99987 1.99988,1.99987 1.108,0 2.0004,-0.89188 2.0004,-1.99987 v -4.9103 -3.18999 l 3.20032,0.007 v -9.90637 h -0.30024 -2.90008 -1.90015 v 0.005 c -0.0334,-0.002 -0.0664,-0.005 -0.10025,-0.005 z"
       id="rect1252-8-8-9"
       inkscape:connector-curvature="0"
       sodipodi:nodetypes="sssssccccccccs" />
    <path
       style="opacity:1;fill:none;fill-opacity:1;stroke:#ff8000;stroke-width:0.1;stroke-miterlimit:4;stroke-dasharray:none;stroke-opacity:1"
       d="m 103.90259,12.83468 c -1.108,0 -1.99988,0.89189 -1.99988,1.99988 v 16.00006 c 0,1.10799 0.89188,1.99987 1.99988,1.99987 1.108,0 2.0004,-0.89188 2.0004,-1.99987 v -4.9103 -3.18999 l 3.20032,0.007 v -9.90637 h -0.30024 -2.90008 -1.90015 v 0.005 c -0.0334,-0.002 -0.0664,-0.005 -0.10025,-0.005 z"
       id="rect1252-8-3-3"
       inkscape:connector-curvature="0"
       sodipodi:nodetypes="sssssccccccccs" />
    <path
       style="opacity:1;fill:none;fill-opacity:1;stroke:#ff8000;stroke-width:0.1;stroke-miterlimit:4;stroke-dasharray:none;stroke-opacity:1"
       d="m 64.497761,33.099845 c -1.108001,0 -1.999877,-0.89189 -1.999877,-1.99988 v -16.00006 c 0,-1.10799 0.891876,-1.99987 1.999877,-1.99987 1.108001,0 2.000395,0.89188 2.000395,1.99987 v 4.9103 3.18999 l 3.200321,-0.007 v 9.90637 h -0.300239 -2.900082 -1.900142 v -0.005 c -0.03341,0.002 -0.06641,0.005 -0.100253,0.005 z"
       id="rect1252-8-9"
       inkscape:connector-curvature="0"
       sodipodi:nodetypes="sssssccccccccs" />
    <g
       id="g6633"
       transform="translate(64.807007,-157.75991)">
      <circle
         r="2.0999999"
         cy="186.94983"
         cx="-20.868237"
         id="path6544"
         style="opacity:1;fill:none;fill-opacity:1;stroke:#0000ff;stroke-width:0.09999999;stroke-miterlimit:4;stroke-dasharray:none;stroke-opacity:1" />
      <path
         id="rect6546"
         transform="matrix(0.26458333,0,0,0.26458333,0,87)"
         d="m -98.123047,356.66602 v 22.6289 h 0.271485 a 18.708662,16.970561 0 0 0 9.271484,13.32422 18.708662,16.970561 0 0 0 18.708984,0 18.708662,16.970561 0 0 0 9.277344,-13.32422 h 0.265625 v -22.6289 z"
         style="opacity:1;fill:none;fill-opacity:1;stroke:#0000ff;stroke-width:0.37795275;stroke-miterlimit:4;stroke-dasharray:none;stroke-opacity:1"
         inkscape:connector-curvature="0" />
    </g>
    <g
       id="g6629"
       transform="translate(72.013285,-154.95358)">
      <path
         id="rect6553"
         transform="matrix(0.26458333,0,0,0.26458333,0,87)"
         d="m -111.94141,288.70312 a 12.850394,12.850394 0 0 0 -12.85156,12.85157 h 5.29102 v 28.99023 h 7.56054 v -28.99023 z"
         style="opacity:1;fill:none;fill-opacity:1;stroke:#0000ff;stroke-width:0.37795275;stroke-miterlimit:4;stroke-dasharray:none;stroke-opacity:1"
         inkscape:connector-curvature="0" />
      <path
         id="rect6553-2"
         transform="matrix(0.26458333,0,0,0.26458333,0,87)"
         d="m -100.98047,288.70508 v 12.84961 28.99023 h 7.558595 v -28.99023 h 5.291016 a 12.850394,12.850394 0 0 0 -12.849611,-12.84961 z"
         style="opacity:1;fill:none;fill-opacity:1;stroke:#0000ff;stroke-width:0.37795275;stroke-miterlimit:4;stroke-dasharray:none;stroke-opacity:1"
         inkscape:connector-curvature="0" />
    </g>
  </g>
</svg>
