<?xml version="1.0" encoding="UTF-8" standalone="no"?>
<!-- Created with Inkscape (http://www.inkscape.org/) -->

<svg
   xmlns:dc="http://purl.org/dc/elements/1.1/"
   xmlns:cc="http://creativecommons.org/ns#"
   xmlns:rdf="http://www.w3.org/1999/02/22-rdf-syntax-ns#"
   xmlns:svg="http://www.w3.org/2000/svg"
   xmlns="http://www.w3.org/2000/svg"
   xmlns:sodipodi="http://sodipodi.sourceforge.net/DTD/sodipodi-0.dtd"
   xmlns:inkscape="http://www.inkscape.org/namespaces/inkscape"
   width="297mm"
   height="210mm"
   viewBox="0 0 297 210"
   version="1.1"
   id="svg10641"
   inkscape:version="0.92.2 5c3e80d, 2017-08-06"
   sodipodi:docname="mainson-4.svg">
  <defs
     id="defs10635" />
  <sodipodi:namedview
     id="base"
     pagecolor="#ffffff"
     bordercolor="#666666"
     borderopacity="1.0"
     inkscape:pageopacity="0.0"
     inkscape:pageshadow="2"
     inkscape:zoom="0.44785584"
     inkscape:cx="398.04027"
     inkscape:cy="549.30678"
     inkscape:document-units="mm"
     inkscape:current-layer="layer1"
     showgrid="false"
     inkscape:window-width="1280"
     inkscape:window-height="699"
     inkscape:window-x="0"
     inkscape:window-y="1"
     inkscape:window-maximized="1"
     units="mm"
     objecttolerance="20"
     gridtolerance="10" />
  <metadata
     id="metadata10638">
    <rdf:RDF>
      <cc:Work
         rdf:about="">
        <dc:format>image/svg+xml</dc:format>
        <dc:type
           rdf:resource="http://purl.org/dc/dcmitype/StillImage" />
        <dc:title />
      </cc:Work>
    </rdf:RDF>
  </metadata>
  <g
     inkscape:label="Calque 1"
     inkscape:groupmode="layer"
     id="layer1"
     transform="translate(0,-87)">
    <path
       style="fill:none;stroke:#ff8000;stroke-width:0.37795275;stroke-linejoin:round;stroke-miterlimit:4;stroke-dasharray:none;stroke-opacity:1"
       d="M 42.966797 27.699219 L 42.966797 103.28906 L 41.832031 103.28906 L 30.871094 103.28906 L 23.689453 103.28906 L 23.689453 103.30859 C 23.563179 103.30103 23.438457 103.28906 23.310547 103.28906 C 19.122827 103.28906 15.751953 106.65998 15.751953 110.84766 L 15.751953 171.32031 C 15.751953 175.50799 19.122827 178.87891 23.310547 178.87891 C 27.498266 178.87891 30.871094 175.50799 30.871094 171.32031 L 30.871094 152.76172 L 30.871094 140.70508 L 42.966797 140.73047 L 42.966797 659.2168 L 41.832031 659.2168 L 30.871094 659.2168 L 23.689453 659.2168 L 23.689453 659.23438 C 23.563217 659.22682 23.438522 659.2168 23.310547 659.2168 L 23.310547 659.21484 C 19.12283 659.21484 15.751953 662.58576 15.751953 666.77344 L 15.751953 727.24609 C 15.751953 731.43377 19.12283 734.80469 23.310547 734.80469 C 27.498307 734.80469 30.871094 731.43377 30.871094 727.24609 L 30.871094 708.6875 L 30.871094 696.63086 L 42.966797 696.6582 L 42.966797 760.93359 L 42.966797 772.24805 L 169.29688 772.24805 L 198.88867 772.24805 L 356.16992 772.24805 L 361.85352 772.24805 C 363.29507 772.24805 364.66794 771.9534 365.91406 771.41992 C 367.16014 770.88652 368.28004 770.11536 369.2207 769.16016 C 370.16133 768.20503 370.91999 767.06605 371.44531 765.80078 C 371.7967 764.9539 371.86778 763.98698 371.99219 763.04297 C 371.93289 762.58531 371.78906 762.1562 371.78906 761.68164 L 371.78906 643.73242 C 371.79996 643.79252 371.80436 643.85513 371.81836 643.91406 L 371.81836 580.85547 C 371.81836 575.93102 375.78259 571.9668 380.70703 571.9668 L 665.29297 571.9668 C 670.21741 571.9668 674.18164 575.93102 674.18164 580.85547 C 674.05873 641.65436 674.45654 703.22126 674.44531 763.42969 C 674.44531 768.35413 678.40954 772.31836 683.33398 772.31836 C 788.41537 772.36916 905.79261 772.2444 1002.9668 772.25 L 1002.9668 760.93359 L 1002.9668 696.66016 L 1015.0625 696.63281 L 1015.0625 708.68945 L 1015.0625 727.24805 C 1015.0625 731.43573 1018.4353 734.80664 1022.623 734.80664 C 1026.8108 734.80664 1030.1816 731.43573 1030.1816 727.24805 L 1030.1816 666.77539 C 1030.1816 662.58771 1026.8108 659.2168 1022.623 659.2168 L 1022.623 659.21875 C 1022.4951 659.21875 1022.3704 659.22877 1022.2441 659.23633 L 1022.2441 659.21875 L 1015.0625 659.21875 L 1004.1016 659.21875 L 1002.9668 659.21875 L 1002.9668 140.73047 L 1015.0625 140.70508 L 1015.0625 152.76172 L 1015.0625 171.32031 C 1015.0625 175.50799 1018.4353 178.87891 1022.623 178.87891 C 1026.8108 178.87891 1030.1816 175.50799 1030.1816 171.32031 L 1030.1816 110.84766 C 1030.1816 106.65998 1026.8108 103.28906 1022.623 103.28906 C 1022.4951 103.28906 1022.3704 103.30103 1022.2441 103.30859 L 1022.2441 103.28906 L 1015.0625 103.28906 L 1004.1016 103.28906 L 1002.9668 103.28906 L 1002.9668 27.699219 L 42.966797 27.699219 z "
       transform="matrix(0.26458333,0,0,0.26458333,0,87)"
       id="path4644" />
  </g>
</svg>
