<?xml version="1.0" encoding="UTF-8" standalone="no"?>
<!-- Created with Inkscape (http://www.inkscape.org/) -->

<svg
   xmlns:dc="http://purl.org/dc/elements/1.1/"
   xmlns:cc="http://creativecommons.org/ns#"
   xmlns:rdf="http://www.w3.org/1999/02/22-rdf-syntax-ns#"
   xmlns:svg="http://www.w3.org/2000/svg"
   xmlns="http://www.w3.org/2000/svg"
   xmlns:sodipodi="http://sodipodi.sourceforge.net/DTD/sodipodi-0.dtd"
   xmlns:inkscape="http://www.inkscape.org/namespaces/inkscape"
   width="297mm"
   height="210mm"
   viewBox="0 0 297 210"
   version="1.1"
   id="svg10641"
   inkscape:version="0.92.3 (2405546, 2018-03-11)"
   sodipodi:docname="mainson4.svg">
  <defs
     id="defs10635" />
  <sodipodi:namedview
     id="base"
     pagecolor="#ffffff"
     bordercolor="#666666"
     borderopacity="1.0"
     inkscape:pageopacity="0.0"
     inkscape:pageshadow="2"
     inkscape:zoom="0.44785584"
     inkscape:cx="223.13459"
     inkscape:cy="640.74383"
     inkscape:document-units="mm"
     inkscape:current-layer="layer1"
     showgrid="false"
     inkscape:window-width="1920"
     inkscape:window-height="1018"
     inkscape:window-x="-8"
     inkscape:window-y="-8"
     inkscape:window-maximized="1"
     units="mm"
     objecttolerance="20"
     gridtolerance="10" />
  <metadata
     id="metadata10638">
    <rdf:RDF>
      <cc:Work
         rdf:about="">
        <dc:format>image/svg+xml</dc:format>
        <dc:type
           rdf:resource="http://purl.org/dc/dcmitype/StillImage" />
        <dc:title />
      </cc:Work>
    </rdf:RDF>
  </metadata>
  <g
     inkscape:label="Calque 1"
     inkscape:groupmode="layer"
     id="layer1"
     transform="translate(0,-87)">
    <path
       style="fill:none;stroke:#ff8000;stroke-width:0.37795275;stroke-linejoin:round;stroke-miterlimit:4;stroke-dasharray:none;stroke-opacity:1"
       d="M 107.26758,16.732422 V 27.699219 H 42.966797 V 101.5 H 32.066406 v 75.40039 h 10.900391 v 94.69922 H 32.066406 v 75.36719 h 10.900391 v 94.69922 H 32.066406 v 75.36718 h 10.900391 v 94.69922 H 32.066406 v 75.40039 h 10.900391 v 73.80078 11.31446 h 126.330083 29.59179 157.28125 5.6836 c 1.44155,0 2.81442,-0.29465 4.06054,-0.82813 1.24608,-0.5334 2.36598,-1.30456 3.30664,-2.25976 0.94063,-0.95513 1.69929,-2.09411 2.22461,-3.35938 0.35139,-0.84688 0.42247,-1.8138 0.54688,-2.75781 -0.0593,-0.45766 -0.20313,-0.88677 -0.20313,-1.36133 V 643.73242 c 0.0109,0.0601 0.0153,0.12271 0.0293,0.18164 v -63.05859 c 0,-4.92445 3.96423,-8.88867 8.88867,-8.88867 h 284.58594 c 4.92444,0 8.88867,3.96422 8.88867,8.88867 -0.12291,60.79889 0.2749,122.36579 0.26367,182.57422 0,4.92444 3.96423,8.88867 8.88867,8.88867 105.08139,0.0508 222.45863,-0.074 319.63282,-0.0684 v -11.31641 -73.80078 h 10.9668 v -75.40039 h -10.9668 V 517.0332 h 10.9668 v -75.36718 h -10.9668 V 346.9668 h 10.9668 v -75.36719 h -10.9668 v -94.69922 h 10.9668 V 101.5 h -10.9668 V 27.699219 H 938.73242 V 16.732422 H 863.36719 V 27.699219 H 787.5 V 16.732422 H 712.13281 V 27.699219 H 636.30078 V 16.732422 H 560.93359 V 27.699219 H 485.06641 V 16.732422 H 409.69922 V 27.699219 H 333.86719 V 16.732422 H 258.5 V 27.699219 H 182.63281 V 16.732422 Z"
       transform="matrix(0.26458333,0,0,0.26458333,0,87)"
       id="path4644"
       inkscape:connector-curvature="0"
       sodipodi:nodetypes="ccccccccccccccccccccccccsccccsccsssccccccccccccccccccccccccccccccccccccccccccccc" />
  </g>
</svg>
