<?xml version="1.0" encoding="UTF-8" standalone="no"?>
<!-- Created with Inkscape (http://www.inkscape.org/) -->

<svg
   xmlns:dc="http://purl.org/dc/elements/1.1/"
   xmlns:cc="http://creativecommons.org/ns#"
   xmlns:rdf="http://www.w3.org/1999/02/22-rdf-syntax-ns#"
   xmlns:svg="http://www.w3.org/2000/svg"
   xmlns="http://www.w3.org/2000/svg"
   xmlns:sodipodi="http://sodipodi.sourceforge.net/DTD/sodipodi-0.dtd"
   xmlns:inkscape="http://www.inkscape.org/namespaces/inkscape"
   width="297mm"
   height="210mm"
   viewBox="0 0 296.99999 210"
   version="1.1"
   id="svg1595"
   inkscape:version="0.92.3 (2405546, 2018-03-11)"
   sodipodi:docname="maison5-2.svg">
  <sodipodi:namedview
     id="base"
     pagecolor="#ffffff"
     bordercolor="#666666"
     borderopacity="1.0"
     inkscape:pageopacity="0.0"
     inkscape:pageshadow="2"
     inkscape:zoom="0.78"
     inkscape:cx="880.17717"
     inkscape:cy="263.46869"
     inkscape:document-units="mm"
     inkscape:current-layer="svg1595"
     showgrid="false"
     inkscape:window-width="1920"
     inkscape:window-height="1018"
     inkscape:window-x="-8"
     inkscape:window-y="-8"
     inkscape:window-maximized="1" />
  <defs
     id="defs1589" />
  <metadata
     id="metadata1592">
    <rdf:RDF>
      <cc:Work
         rdf:about="">
        <dc:format>image/svg+xml</dc:format>
        <dc:type
           rdf:resource="http://purl.org/dc/dcmitype/StillImage" />
        <dc:title></dc:title>
      </cc:Work>
    </rdf:RDF>
  </metadata>
  <g
     inkscape:label="Calque 1"
     inkscape:groupmode="layer"
     id="layer1"
     transform="translate(0,-87)" />
  <g
     id="g2654"
     transform="translate(-145.86004,102.10203)">
    <rect
       transform="rotate(-90)"
       y="283.2485"
       x="-71.996063"
       height="3"
       width="20"
       id="rect627-5-7-5-8-1"
       style="opacity:1;fill:none;stroke:#0000ff;stroke-width:0.1;stroke-miterlimit:4;stroke-dasharray:none;stroke-opacity:1" />
    <path
       id="RowPieces_0-38"
       d="m 156.19703,-98.842427 c 0,0 -8.89061,71.074647 -2.60863,81.980529 6.282,10.905882 5.26682,3.101388 18.00045,3.538802 12.73366,0.437415 5.41105,25.911583 -3.884,27.109973 -9.29503,1.19838 -9.73884,-13.660329 -14.53968,-4.72013 -2.45636,4.57427 -3.30676,46.51515 -2.83445,88.060782 41.70658,3.499541 85.95808,7.477121 92.10858,4.210081 11.5626,-6.141851 -5.8861,-5.930091 -3.9362,-16.784511 1.9499,-10.85441 28.4387,-8.61892 29.6979,0.72554 1.2593,9.34445 -9.4321,6.67712 -0.3906,11.77964 9.0414,5.102521 83.3866,-0.90072 83.3866,-0.90072 V -93.842217 c 0,-2.49999 -2.4997,-5.00021 -4.9997,-5.00021 z"
       style="fill:none;stroke:#ff8000;stroke-width:0.1;stroke-linecap:butt;stroke-linejoin:miter;stroke-opacity:1"
       inkscape:connector-curvature="0" />
    <path
       inkscape:connector-curvature="0"
       id="rect1616-8-3-2"
       d="m 151.75748,17.821665 c -1.3263,15.26564 -1.7451,47.38888 -1.3824,79.299554 41.70662,3.499551 85.95812,7.477111 92.10862,4.210101 11.5626,-6.141861 -5.886,-5.930111 -3.9362,-16.784511 1.9499,-10.85443 28.4387,-8.61894 29.6979,0.72551 1.2593,9.34448 -9.4321,6.67714 -0.3906,11.77965 2.4022,1.35572 9.4352,1.92278 18.4381,2.03142 V 17.821665 Z"
       style="opacity:1;fill:none;stroke:#000000;stroke-width:0.1;stroke-miterlimit:4;stroke-dasharray:none;stroke-opacity:1" />
  </g>
</svg>
