<?xml version="1.0" encoding="UTF-8" standalone="no"?>
<!-- Created with Inkscape (http://www.inkscape.org/) -->

<svg
   xmlns:dc="http://purl.org/dc/elements/1.1/"
   xmlns:cc="http://creativecommons.org/ns#"
   xmlns:rdf="http://www.w3.org/1999/02/22-rdf-syntax-ns#"
   xmlns:svg="http://www.w3.org/2000/svg"
   xmlns="http://www.w3.org/2000/svg"
   xmlns:sodipodi="http://sodipodi.sourceforge.net/DTD/sodipodi-0.dtd"
   xmlns:inkscape="http://www.inkscape.org/namespaces/inkscape"
   width="297mm"
   height="210mm"
   viewBox="0 0 296.99999 210"
   version="1.1"
   id="svg1595"
   inkscape:version="0.92.3 (2405546, 2018-03-11)"
   sodipodi:docname="maison5-3.svg">
  <sodipodi:namedview
     id="base"
     pagecolor="#ffffff"
     bordercolor="#666666"
     borderopacity="1.0"
     inkscape:pageopacity="0.0"
     inkscape:pageshadow="2"
     inkscape:zoom="0.78"
     inkscape:cx="632.13036"
     inkscape:cy="414.02377"
     inkscape:document-units="mm"
     inkscape:current-layer="svg1595"
     showgrid="false"
     inkscape:window-width="1920"
     inkscape:window-height="1018"
     inkscape:window-x="-8"
     inkscape:window-y="-8"
     inkscape:window-maximized="1" />
  <defs
     id="defs1589" />
  <metadata
     id="metadata1592">
    <rdf:RDF>
      <cc:Work
         rdf:about="">
        <dc:format>image/svg+xml</dc:format>
        <dc:type
           rdf:resource="http://purl.org/dc/dcmitype/StillImage" />
        <dc:title></dc:title>
      </cc:Work>
    </rdf:RDF>
  </metadata>
  <g
     inkscape:label="Calque 1"
     inkscape:groupmode="layer"
     id="layer1"
     transform="translate(0,-87)" />
  <g
     id="g2671"
     transform="translate(108.2078,-148.57372)">
    <rect
       transform="scale(1,-1)"
       y="-278.23697"
       x="-20.100344"
       height="2.9000001"
       width="19.900002"
       id="rect185-2-4-1"
       style="opacity:1;fill:none;stroke:#0000ff;stroke-width:0.09999999;stroke-miterlimit:4;stroke-dasharray:none;stroke-opacity:1" />
    <rect
       transform="scale(1,-1)"
       y="-278.23697"
       x="29.899656"
       height="2.9000001"
       width="19.900003"
       id="rect185-7-3-8-5"
       style="opacity:1;fill:none;stroke:#0000ff;stroke-width:0.09999999;stroke-miterlimit:4;stroke-dasharray:none;stroke-opacity:1" />
    <path
       d="m 57.323373,276.75188 a 1.4499962,1.449994 0 0 1 1.479458,-1.41461 1.4499962,1.449994 0 0 1 1.4199,1.47439 1.4499962,1.449994 0 0 1 -1.469297,1.42516 1.4499962,1.449994 0 0 1 -1.430414,-1.46419"
       sodipodi:open="true"
       sodipodi:end="3.1514712"
       sodipodi:start="3.1657829"
       sodipodi:ry="1.449994"
       sodipodi:rx="1.4499962"
       sodipodi:cy="276.78696"
       sodipodi:cx="58.772945"
       sodipodi:type="arc"
       id="path409-6-4"
       style="opacity:1;fill:none;stroke:#0000ff;stroke-width:0.1;stroke-miterlimit:4;stroke-dasharray:none;stroke-opacity:1" />
    <rect
       transform="rotate(-90)"
       y="-40.000309"
       x="-252.55415"
       height="3"
       width="20"
       id="rect627-6-32-6"
       style="opacity:1;fill:none;stroke:#0000ff;stroke-width:0.1;stroke-miterlimit:4;stroke-dasharray:none;stroke-opacity:1" />
    <rect
       transform="rotate(-90)"
       y="-40.000309"
       x="-192.45416"
       height="3"
       width="20"
       id="rect627-8-2-69-5"
       style="opacity:1;fill:none;stroke:#0000ff;stroke-width:0.1;stroke-miterlimit:4;stroke-dasharray:none;stroke-opacity:1" />
    <path
       inkscape:connector-curvature="0"
       id="rect1616-8-0-3"
       d="m -37.9095,150.60327 c -0.68206,0.002 -1.383,0.01 -2.09135,0.0202 V 278.23738 H 82.57513 c 0.0713,-5.76627 0.59618,-10.14386 1.79112,-12.1331 6.22625,-10.36509 10.42128,3.95631 19.38078,3.41685 8.9594,-0.53945 12.1539,-24.46183 0.2211,-26.07232 -11.93277,-1.6105 -9.6753,11.5595 -15.05179,-0.92139 -2.62557,-6.095 -4.28069,-45.38846 -4.73149,-85.04184 -36.69927,-3.07939 -71.43387,-5.78984 -76.4222,-2.85254 -10.65725,6.27536 0.91702,2.29432 -0.96117,12.60336 -1.8782,10.30906 -28.97844,16.39387 -29.44834,3.668 -0.46993,-12.72586 12.40652,-13.50736 -0.15761,-18.73891 -2.74842,-1.1444 -8.22515,-1.58011 -15.10503,-1.56218 z"
       style="opacity:1;fill:none;stroke:#000000;stroke-width:0.1;stroke-miterlimit:4;stroke-dasharray:none;stroke-opacity:1" />
    <path
       id="RowPieces_1-2"
       d="m -37.90951,150.60332 c -24.57096,0.0641 -67.03931,5.91229 -67.03931,5.91229 v 190.00028 c 0,2.50003 2.50021,4.9997 5.00021,4.9997 H 90.05116 c 0,0 -11.91119,-75.04624 -5.68491,-85.41132 6.22628,-10.36509 10.42127,3.9563 19.38072,3.41684 8.95943,-0.53944 12.15396,-24.4618 0.22117,-26.07229 -11.93279,-1.6105 -9.67536,11.55948 -15.0518,-0.9214 -2.62557,-6.09501 -4.2807,-45.38845 -4.73149,-85.04184 -36.69927,-3.07939 -71.43388,-5.78984 -76.4222,-2.85254 -10.65726,6.27536 0.91702,2.29431 -0.96118,12.60337 -1.87819,10.30905 -28.97841,16.39386 -29.44833,3.668 -0.46993,-12.72587 12.40652,-13.50737 -0.15762,-18.73892 -2.74841,-1.1444 -8.22515,-1.58011 -15.10503,-1.56217 z"
       style="fill:none;stroke:#ff8000;stroke-width:0.1;stroke-linecap:butt;stroke-linejoin:miter;stroke-opacity:1"
       inkscape:connector-curvature="0" />
  </g>
</svg>
