<?xml version="1.0" encoding="UTF-8" standalone="no"?>
<!-- Created with Inkscape (http://www.inkscape.org/) -->

<svg
   xmlns:dc="http://purl.org/dc/elements/1.1/"
   xmlns:cc="http://creativecommons.org/ns#"
   xmlns:rdf="http://www.w3.org/1999/02/22-rdf-syntax-ns#"
   xmlns:svg="http://www.w3.org/2000/svg"
   xmlns="http://www.w3.org/2000/svg"
   xmlns:sodipodi="http://sodipodi.sourceforge.net/DTD/sodipodi-0.dtd"
   xmlns:inkscape="http://www.inkscape.org/namespaces/inkscape"
   width="297mm"
   height="210mm"
   viewBox="0 0 296.99999 210"
   version="1.1"
   id="svg1595"
   inkscape:version="0.92.3 (2405546, 2018-03-11)"
   sodipodi:docname="maison5-1.svg">
  <sodipodi:namedview
     id="base"
     pagecolor="#ffffff"
     bordercolor="#666666"
     borderopacity="1.0"
     inkscape:pageopacity="0.0"
     inkscape:pageshadow="2"
     inkscape:zoom="0.48"
     inkscape:cx="308.15086"
     inkscape:cy="441.94858"
     inkscape:document-units="mm"
     inkscape:current-layer="svg1595"
     showgrid="false"
     inkscape:window-width="1920"
     inkscape:window-height="1018"
     inkscape:window-x="-8"
     inkscape:window-y="-8"
     inkscape:window-maximized="1" />
  <defs
     id="defs1589" />
  <metadata
     id="metadata1592">
    <rdf:RDF>
      <cc:Work
         rdf:about="">
        <dc:format>image/svg+xml</dc:format>
        <dc:type
           rdf:resource="http://purl.org/dc/dcmitype/StillImage" />
        <dc:title></dc:title>
      </cc:Work>
    </rdf:RDF>
  </metadata>
  <g
     inkscape:label="Calque 1"
     inkscape:groupmode="layer"
     id="layer1"
     transform="translate(0,-87)" />
  <g
     id="g2633"
     transform="translate(92.604164,103.07726)">
    <path
       id="path4999"
       d="m 103.77087,17.632695 c 0.39741,-4.512156 0.87561,-7.51858 1.43804,-8.5659567 4.80084,-8.94018866 5.24465,5.9185197 14.53967,4.7201397 9.29505,-1.198401 16.61816,-26.672559 3.88454,-27.109969 -12.73366,-0.43744 -11.71898,7.3670797 -18.00098,-3.5388 -6.28198,-10.905892 2.60916,-81.980536 2.60916,-81.980536 H -79.258907 v 0 c -2.499995,0 -4.999779,2.12e-4 -7.4998,5.00022 V 96.157538 c 0,0 40.186901,-5.534002 64.99344,-5.894303"
       style="fill:none;stroke:#ff8000;stroke-width:0.1;stroke-linecap:butt;stroke-linejoin:miter;stroke-opacity:1"
       inkscape:connector-curvature="0" />
    <path
       id="RowPieces_0-3-7"
       d="m -21.765267,90.263235 c 7.834683,-0.113795 14.1352054,0.288486 17.1508998,1.544182 12.5641627,5.231551 -0.3122877,6.013051 0.1576123,18.738903 0.4699529,12.72588 27.5701389,6.64057 29.4483359,-3.6685 1.878198,-10.309043 -9.696053,-6.32748 0.961179,-12.602843 4.988348,-2.937298 39.722848,-0.226859 76.42222,2.85255 -0.36414,-32.03293 0.0577,-64.300756 1.39589,-79.494832"
       style="fill:none;stroke:#ff8000;stroke-width:0.1;stroke-linecap:butt;stroke-linejoin:miter;stroke-miterlimit:4;stroke-dasharray:none;stroke-opacity:1"
       inkscape:connector-curvature="0" />
    <rect
       transform="rotate(-90)"
       y="-21.810198"
       x="-71.996086"
       height="3"
       width="20"
       id="rect627-5-7-4-9"
       style="opacity:1;fill:none;stroke:#0000ff;stroke-width:0.1;stroke-miterlimit:4;stroke-dasharray:none;stroke-opacity:1" />
    <path
       id="rect1616-8-4-0"
       d="m -21.76527,17.821665 v 72.441574 c 7.84773,-0.11515 14.17653,0.2807 17.19585,1.53789 12.56417,5.23155 -0.31229,6.01308 0.15761,18.738931 0.46996,12.72587 27.57014,6.64054 29.44834,-3.66853 1.87817,-10.309041 -9.69608,-6.32748 0.96118,-12.602841 4.98832,-2.9373 39.72282,-0.22686 76.4222,2.85255 -0.36277,-31.910524 0.0557,-64.033804 1.38184,-79.299574 z"
       style="opacity:1;fill:none;stroke:#000000;stroke-width:0.1;stroke-miterlimit:4;stroke-dasharray:none;stroke-opacity:1"
       inkscape:connector-curvature="0" />
  </g>
</svg>
