<?xml version="1.0" encoding="UTF-8" standalone="no"?>
<!-- Created with Inkscape (http://www.inkscape.org/) -->

<svg
   xmlns:dc="http://purl.org/dc/elements/1.1/"
   xmlns:cc="http://creativecommons.org/ns#"
   xmlns:rdf="http://www.w3.org/1999/02/22-rdf-syntax-ns#"
   xmlns:svg="http://www.w3.org/2000/svg"
   xmlns="http://www.w3.org/2000/svg"
   xmlns:sodipodi="http://sodipodi.sourceforge.net/DTD/sodipodi-0.dtd"
   xmlns:inkscape="http://www.inkscape.org/namespaces/inkscape"
   width="210mm"
   height="297mm"
   viewBox="0 0 209.99999 297"
   version="1.1"
   id="svg1595"
   inkscape:version="0.92.3 (2405546, 2018-03-11)"
   sodipodi:docname="maison5-4.svg">
  <sodipodi:namedview
     id="base"
     pagecolor="#ffffff"
     bordercolor="#666666"
     borderopacity="1.0"
     inkscape:pageopacity="0.0"
     inkscape:pageshadow="2"
     inkscape:zoom="0.63234634"
     inkscape:cx="439.80395"
     inkscape:cy="567.45357"
     inkscape:document-units="mm"
     inkscape:current-layer="svg1595"
     showgrid="false"
     inkscape:window-width="1920"
     inkscape:window-height="1018"
     inkscape:window-x="-8"
     inkscape:window-y="-8"
     inkscape:window-maximized="1" />
  <defs
     id="defs1589" />
  <metadata
     id="metadata1592">
    <rdf:RDF>
      <cc:Work
         rdf:about="">
        <dc:format>image/svg+xml</dc:format>
        <dc:type
           rdf:resource="http://purl.org/dc/dcmitype/StillImage" />
        <dc:title></dc:title>
      </cc:Work>
    </rdf:RDF>
  </metadata>
  <g
     inkscape:label="Calque 1"
     inkscape:groupmode="layer"
     id="layer1" />
  <g
     id="g2662"
     transform="translate(-131.38238,-133.08641)">
    <rect
       transform="scale(1,-1)"
       y="-276.58331"
       x="180.62047"
       height="2.9000001"
       width="19.900003"
       id="rect185-8-70-0-3"
       style="opacity:1;fill:none;stroke:#0000ff;stroke-width:0.09999999;stroke-miterlimit:4;stroke-dasharray:none;stroke-opacity:1" />
    <rect
       transform="scale(1,-1)"
       y="-276.58331"
       x="230.62053"
       height="2.9000001"
       width="19.900005"
       id="rect185-7-0-3-4-5"
       style="opacity:1;fill:none;stroke:#0000ff;stroke-width:0.09999999;stroke-miterlimit:4;stroke-dasharray:none;stroke-opacity:1" />
    <rect
       transform="rotate(-90)"
       y="267.53885"
       x="-250.90051"
       height="3"
       width="20"
       id="rect627-6-3-7-4"
       style="opacity:1;fill:none;stroke:#0000ff;stroke-width:0.1;stroke-miterlimit:4;stroke-dasharray:none;stroke-opacity:1" />
    <rect
       transform="rotate(-90)"
       y="267.53885"
       x="-190.80051"
       height="3"
       width="20"
       id="rect627-8-2-6-8-9"
       style="opacity:1;fill:none;stroke:#0000ff;stroke-width:0.1;stroke-miterlimit:4;stroke-dasharray:none;stroke-opacity:1" />
    <path
       inkscape:connector-curvature="0"
       id="rect1616-8-37-9"
       d="m 236.58486,136.00578 c -6.5717,-0.0484 -12.8774,2.16373 -13.7914,7.25175 -1.9499,10.8544 15.4983,10.64266 3.9357,16.78451 -6.1505,3.26702 -50.4016,-0.71055 -92.108,-4.21008 0.4508,39.65332 2.1059,78.94684 4.7315,85.04183 5.3764,12.48091 3.119,-0.68909 15.0518,0.9214 11.9327,1.61048 8.7377,25.53284 -0.2217,26.0723 -8.9595,0.53944 -13.1545,-13.78191 -19.3808,-3.41684 -1.1949,1.98924 -1.7198,6.36684 -1.7911,12.13311 h 137.5275 V 157.79411 c -9.0028,-0.10863 -16.0354,-0.67571 -18.4376,-2.03139 -9.0415,-5.10252 1.6494,-2.43517 0.3901,-11.77964 -0.6689,-4.96424 -8.458,-7.92246 -15.906,-7.9773 z"
       style="opacity:1;fill:none;stroke:#000000;stroke-width:0.1;stroke-miterlimit:4;stroke-dasharray:none;stroke-opacity:1" />
    <path
       inkscape:connector-curvature="0"
       id="RowPieces_1-9-0"
       d="m 236.58486,136.00579 c -6.5717,-0.0484 -12.8774,2.16374 -13.7914,7.25176 -1.9499,10.8544 15.4988,10.64265 3.9362,16.7845 -6.1505,3.26702 -50.4021,-0.71056 -92.10859,-4.21008 0.4508,39.65332 2.10593,78.94683 4.73149,85.04182 5.37644,12.4809 3.11902,-0.6891 15.0518,0.92139 11.93279,1.61049 8.73827,25.53287 -0.22119,26.07233 -8.95942,0.53943 -13.15445,-13.78193 -19.38073,-3.41686 -6.22628,10.36508 5.68495,85.41131 5.68495,85.41131 h 189.99977 c 2.5,0 5.0002,-2.49967 5.0002,-4.99967 v -190.0003 c 0,0 -74.3452,6.00323 -83.3866,0.90072 -9.0415,-5.10252 1.6499,-2.43518 0.3906,-11.77965 -0.6689,-4.96424 -8.4585,-7.92244 -15.9065,-7.97727 z"
       style="fill:none;stroke:#ff8000;stroke-width:0.1;stroke-linecap:butt;stroke-linejoin:miter;stroke-opacity:1" />
  </g>
</svg>
